<svg xmlns="http://www.w3.org/2000/svg" viewBox="0 0 48.56 48.56"><defs><style>.cls-1{fill:#fff;}.cls-2{fill:none;stroke:#141515;stroke-miterlimit:10;stroke-width:0.57px;}</style></defs><title>Recurso 34icono</title><g id="Capa_2" data-name="Capa 2"><g id="Capa_1-2" data-name="Capa 1"><path class="cls-1" d="M1.62,12.33l21.51,9.36a2.48,2.48,0,0,0,2.5,0l21.48-9.36a1.34,1.34,0,0,0,.8-1.7,1.38,1.38,0,0,0-.8-.79L25.63.94a2.44,2.44,0,0,0-2.5,0L1.62,9.75c-1.59.45-1.59,1.62,0,2.5ZM47.08,22.85h0c1.17.88,1.17,2,0,2.49L25.6,34.7a2.48,2.48,0,0,1-2.5,0L1.62,25.34c-1.62-.88-1.62-2,0-2.49l4.81-2L23.1,28.12a2.58,2.58,0,0,0,2.47,0l17.12-7.31,4.31,2Zm0,12.95h0l-4.53-2L25.46,41.07a2.44,2.44,0,0,1-2.5,0L6.29,33.76l-4.82,2c-1.61.43-1.61,2,0,2.5L23,47.65a2.43,2.43,0,0,0,2.47,0L47,38.3c1.73-.4,1.73-1.56.11-2.44Z"/><rect class="cls-2" x="0.28" y="0.28" width="47.99" height="47.99"/></g></g></svg>