<svg xmlns="http://www.w3.org/2000/svg" viewBox="0 0 47.65 36.48"><defs><style>.cls-1{fill:#fff;fill-rule:evenodd;}</style></defs><title>Recurso 32icono</title><g id="Capa_2" data-name="Capa 2"><g id="Capa_1-2" data-name="Capa 1"><path class="cls-1" d="M21.94,21.63c2.61,1.73,1.3,1.25,3.66,0a5.2,5.2,0,0,0,.93.88L42.29,35.35H5.13c.23-.34,3.74-3.09,4.14-3.43l9.47-7.68c1-.74,2.15-1.93,3.2-2.61Zm4-.23L40.31,11.08c.74-.51,1.36-1,2.1-1.47v25c-.77-.48-1.28-1.08-2-1.64-.22-.17-.28-.26-.48-.43l-2.58-2.13c-.37-.28-.62-.51-1-.82ZM5,34.53c0-2.27.11-4.17.11-6.41V18.2c0-1.11.11-2,.11-3.2l0-4.91c.14-.48.54.06.91.31L10,13.07c.68.51,1.27.88,1.92,1.39,2.44,1.84,5.3,3.74,7.74,5.55.31.23.6.4.94.65s.73.37.88.85a34.24,34.24,0,0,0-3.18,2.3C14.06,27.3,9.89,30.44,5.61,34.1c-.31.28-.17.31-.59.43ZM3.32,1.05h41L24.09,15.53s-.05,0-.08.06l-.26.2c-5.18-3.49-10.4-7.6-15.36-11L3.94,1.56c-.28-.23-.45-.26-.62-.51ZM0,4.14V32.6a4.54,4.54,0,0,0,3.88,3.88H43.54a4.43,4.43,0,0,0,4.11-4.22V4.48a4.63,4.63,0,0,0-1.16-3.06A4.74,4.74,0,0,0,43.65,0H4A4.41,4.41,0,0,0,0,4.14Z"/></g></g></svg>