<svg xmlns="http://www.w3.org/2000/svg" viewBox="0 0 48.19 48.19"><defs><style>.cls-1{fill:#fff;}.cls-2{fill:none;stroke:#2b2926;stroke-miterlimit:10;stroke-width:0.2px;}</style></defs><title>instagram-escalaicono</title><g id="Capa_2" data-name="Capa 2"><g id="Capa_1-2" data-name="Capa 1"><path class="cls-1" d="M17.36,7.3H30.83a10,10,0,0,1,10.06,9.84V31.05a10,10,0,0,1-10.06,9.84H17.36A10,10,0,0,1,7.3,31.05V17.14A10,10,0,0,1,17.36,7.3Zm6.83,11.59a5.21,5.21,0,1,1-5.3,5.22,5.38,5.38,0,0,1,5.3-5.22Zm0-4.36h0a9.28,9.28,0,1,0,0,18.56,9.29,9.29,0,0,0,9.5-9.26,9.48,9.48,0,0,0-9.5-9.3Zm9-1.56a2,2,0,1,1-2.1,2,2.07,2.07,0,0,1,2.1-2ZM17.36,10.64h0A6.39,6.39,0,0,0,11,16.85v14.2a6.41,6.41,0,0,0,6.35,6.24H30.83a6.43,6.43,0,0,0,6.37-6.24V17.14a6.4,6.4,0,0,0-6.37-6.21Z"/><rect class="cls-2" x="0.1" y="0.1" width="47.99" height="47.99"/></g></g></svg>