<svg xmlns="http://www.w3.org/2000/svg" viewBox="0 0 48.59 48.59"><defs><style>.cls-1{fill:#fff;}.cls-2{fill:none;stroke:#141515;stroke-miterlimit:10;stroke-width:0.57px;}</style></defs><title>Recurso 25icono</title><g id="Capa_2" data-name="Capa 2"><g id="Capa_1-2" data-name="Capa 1"><path class="cls-1" d="M14.66.28H33.93A14.24,14.24,0,0,1,48.3,14.34v19.9A14.24,14.24,0,0,1,33.93,48.3H14.66A14.23,14.23,0,0,1,.28,34.24V14.34A14.24,14.24,0,0,1,14.66.28Zm9.77,16.59a7.43,7.43,0,1,1-7.59,7.42,7.66,7.66,0,0,1,7.59-7.42Zm0-6.24h0a13.27,13.27,0,1,0,0,26.53A13.27,13.27,0,0,0,38,23.9,13.53,13.53,0,0,0,24.43,10.63ZM37.3,8.39a2.92,2.92,0,1,1-3,2.92,3,3,0,0,1,3-2.92ZM14.66,5.07h0A9.16,9.16,0,0,0,5.58,14V34.24a9.16,9.16,0,0,0,9.08,8.87H33.93A9.15,9.15,0,0,0,43,34.24V14.34a9.15,9.15,0,0,0-9.07-8.87Z"/><rect class="cls-2" x="0.28" y="0.28" width="48.02" height="48.02"/></g></g></svg>