<svg xmlns="http://www.w3.org/2000/svg" viewBox="0 0 48.56 48.56"><defs><style>.cls-1{fill:#fff;fill-rule:evenodd;}.cls-2{fill:none;stroke:#141515;stroke-miterlimit:10;stroke-width:0.57px;}</style></defs><title>Recurso 29icono</title><g id="Capa_2" data-name="Capa 2"><g id="Capa_1-2" data-name="Capa 1"><path class="cls-1" d="M11.37,47.2V16.13H.91V47.2ZM6.12,11.82h0C9.52,11.82,12,9.67,12,6.6S9.52,1.36,6.12,1.36C2.44,1.36.28,3.51.28,6.6s2.16,5.22,5.84,5.22ZM48.27,47.2h0V29.37c0-9.56-4.9-13.86-11.67-13.86a10.37,10.37,0,0,0-9.25,4.93V16.13H16.89c.32,3.09,0,31.07,0,31.07H27.35V30a5.77,5.77,0,0,1,.32-2.47,5.71,5.71,0,0,1,5.24-4c3.69,0,5.22,3.06,5.22,7.06V47.2Z"/><rect class="cls-2" x="0.28" y="0.28" width="47.99" height="47.99"/></g></g></svg>