<svg xmlns="http://www.w3.org/2000/svg" viewBox="0 0 48.19 48.19"><defs><style>.cls-1{fill:#fff;fill-rule:evenodd;}.cls-2{fill:none;stroke:#2b2926;stroke-miterlimit:10;stroke-width:0.2px;}</style></defs><title>Recurso 83icono</title><g id="Capa_2" data-name="Capa 2"><g id="Capa_1-2" data-name="Capa 1"><path class="cls-1" d="M14.62,40.89V18.12H7V40.89ZM10.77,15h0c2.5,0,4.29-1.59,4.29-3.85S13.27,7.3,10.77,7.3c-2.7,0-4.26,1.58-4.26,3.82S8.07,15,10.77,15ZM41.68,40.89h0V27.81c0-7-3.61-10.14-8.58-10.14a7.51,7.51,0,0,0-6.76,3.62V18.12H18.67c.24,2.26,0,22.77,0,22.77h7.67V28.28a4.83,4.83,0,0,1,.21-1.82,4.21,4.21,0,0,1,3.85-2.91c2.7,0,3.82,2.23,3.82,5.17V40.89Z"/><rect class="cls-2" x="0.1" y="0.1" width="47.99" height="47.99"/></g></g></svg>