<svg xmlns="http://www.w3.org/2000/svg" viewBox="0 0 48.19 48.19"><defs><style>.cls-1{fill:#fff;fill-rule:evenodd;}.cls-2{fill:none;stroke:#2b2926;stroke-miterlimit:10;stroke-width:0.2px;}</style></defs><title>linquedin-escalaicono</title><g id="Capa_2" data-name="Capa 2"><g id="Capa_1-2" data-name="Capa 1"><path class="cls-1" d="M12.34,41V13.28H3V41ZM7.67,9.45h0c3,0,5.21-1.92,5.21-4.67S10.7.13,7.67.13C4.38.13,2.48,2.06,2.48,4.78s1.9,4.67,5.19,4.67ZM45.26,41h0V25.07c0-8.5-4.4-12.33-10.44-12.33a9.13,9.13,0,0,0-8.22,4.4V13.28H17.28c.28,2.75,0,27.69,0,27.69H26.6V25.64a5.77,5.77,0,0,1,.26-2.21,5.11,5.11,0,0,1,4.68-3.54c3.28,0,4.64,2.72,4.64,6.29V41Z"/><rect class="cls-2" x="0.1" y="0.1" width="47.99" height="47.99"/></g></g></svg>