<svg xmlns="http://www.w3.org/2000/svg" viewBox="0 0 48.22 48.25"><defs><style>.cls-1{fill:#fff;}.cls-2{fill:none;stroke:#2b2926;stroke-miterlimit:10;stroke-width:0.23px;}</style></defs><title>my-business-escala-retocadoicono</title><g id="Capa_2" data-name="Capa 2"><g id="Capa_1-2" data-name="Capa 1"><path class="cls-1" d="M33.82,19.76,32.29,7.31h6a2.82,2.82,0,0,1,2.55,2.07l2.69,10.38a4.84,4.84,0,0,1-2.69,4.33V38a3,3,0,0,1-3,3H10.37a3,3,0,0,1-3-3V24.12h0a4.82,4.82,0,0,1-2.72-4.36h0L7.46,9.38A2.76,2.76,0,0,1,10,7.31H16L14.43,19.76,16,7.34H32.29ZM35,30.36,35,30.08H30.13V32h2.95a2.4,2.4,0,0,1-.51,1.08,3,3,0,0,1-2.07.82,3.18,3.18,0,0,1-2.18-.9,3,3,0,0,1,4.17-4.26l.25.23,1.36-1.39-.25-.22a5.11,5.11,0,0,0-3.35-1.39A4.9,4.9,0,0,0,27,27.38a4.74,4.74,0,0,0-1.47,3.46A4.54,4.54,0,0,0,27,34.24a5.14,5.14,0,0,0,3.6,1.48,4.65,4.65,0,0,0,3.29-1.31,4.58,4.58,0,0,0,1.24-3A7.42,7.42,0,0,0,35,30.36Zm4.48-10.43-2.1-9.5-.88.09L38,19.62l0,.17c.12,1,.54,1.75.94,1.7s.56-.71.54-1.56Zm-27.7-9.41-.88-.09L8.73,20c0,.8.2,1.42.54,1.48s.82-.71.93-1.7l0-.2Zm8.68-.09-1.25-.06-1,9.5c0,.91.37,1.64.88,1.67s1-.76,1.05-1.75Zm9.58,9.44-.94-9.5-1.3.06.31,9.36c.06,1,.51,1.78,1,1.75s.91-.73.91-1.67ZM11.54,24.24V36.79H36.71V24.26a4.7,4.7,0,0,1-3.32-4.5,4.64,4.64,0,1,1-9.27,0,4.64,4.64,0,1,1-9.27,0,4.68,4.68,0,0,1-3.31,4.48Z"/><rect class="cls-2" x="0.11" y="0.11" width="47.99" height="48.02"/></g></g></svg>