<svg xmlns="http://www.w3.org/2000/svg" viewBox="0 0 48.22 48.19"><defs><style>.cls-1{fill:#fff;}.cls-2{fill:none;stroke:#2b2926;stroke-miterlimit:10;stroke-width:0.2px;}</style></defs><title>my-business-escalaicono</title><g id="Capa_2" data-name="Capa 2"><g id="Capa_1-2" data-name="Capa 1"><path class="cls-1" d="M11,24.36v13H37.29v-13a4.78,4.78,0,0,1-3.46-4.62,4.85,4.85,0,1,1-9.69,0,4.85,4.85,0,0,1-9.7,0A4.83,4.83,0,0,1,11,24.36Zm22.85-4.62L32.27,7.3h6a2.79,2.79,0,0,1,2.55,2.07l2.7,10.37a4.85,4.85,0,0,1-2.7,4.31V37.94a2.92,2.92,0,0,1-2.94,3H10.39a3,3,0,0,1-3-3V24.08h0a4.84,4.84,0,0,1-2.72-4.34h0L7.44,9.37A2.79,2.79,0,0,1,10,7.3h6.07L14.44,19.74,16.06,7.3H32.27Zm-3.06.15-1.19-9.53H27.2v9.38A1.77,1.77,0,0,0,29,21.53a1.81,1.81,0,0,0,1.79-1.64Zm-9.69-9.53H18.75L17.5,19.89a1.82,1.82,0,0,0,1.79,1.64,1.78,1.78,0,0,0,1.79-1.79ZM35,30.32,35,30H30.12V32h2.95a1.86,1.86,0,0,1-.51,1,2.91,2.91,0,0,1-2.05.85A3.3,3.3,0,0,1,28.33,33,3,3,0,0,1,32.5,28.7l.23.23,1.38-1.39-.25-.23a5,5,0,0,0-3.35-1.39A5.07,5.07,0,0,0,27,27.34a4.87,4.87,0,0,0-1.47,3.49A4.63,4.63,0,0,0,27,34.2a5.14,5.14,0,0,0,3.6,1.47,4.48,4.48,0,0,0,3.29-1.3,4.9,4.9,0,0,0,1.16-4Zm-22.42-20H10.36L7.81,20.11a1.78,1.78,0,0,0,1.76,1.42,1.82,1.82,0,0,0,1.81-1.79v-.2ZM40.44,20l-2.53-9.67H35.73l1.13,9.18v.2a1.8,1.8,0,0,0,3.58.29Z"/><rect class="cls-2" x="0.1" y="0.1" width="48.02" height="47.99"/></g></g></svg>