<svg xmlns="http://www.w3.org/2000/svg" viewBox="0 0 48.56 48.56"><defs><style>.cls-1{fill:#fff;}.cls-2{fill:none;stroke:#141515;stroke-miterlimit:10;stroke-width:0.57px;}</style></defs><title>Recurso 31icono</title><g id="Capa_2" data-name="Capa 2"><g id="Capa_1-2" data-name="Capa 1"><path class="cls-1" d="M45,24.26V41.39A3.65,3.65,0,0,1,41.3,45h-34a3.66,3.66,0,0,1-3.66-3.65V24.29h0A6,6,0,0,1,.28,18.91h0L3.66,6.07A3.48,3.48,0,0,1,6.8,3.51h7.51l-2,15.4,2-15.37H34.38l1.9,15.37-1.9-15.4h7.43a3.46,3.46,0,0,1,3.12,2.56l3.34,12.84A6,6,0,0,1,45,24.26Zm-5.27,9.22-.09-.34h-6v2.35h3.66a2.49,2.49,0,0,1-.63,1.3,3.59,3.59,0,0,1-2.55,1.05,3.86,3.86,0,0,1-2.69-1.13,3.7,3.7,0,0,1,.17-5.22,3.74,3.74,0,0,1,5,0l.28.29L38.55,30l-.31-.28a6,6,0,0,0-8.48.05A6,6,0,0,0,28,34.1a5.75,5.75,0,0,0,1.76,4.17,6.53,6.53,0,0,0,4.45,1.84,5.76,5.76,0,0,0,4.08-1.62,5.49,5.49,0,0,0,1.53-3.71,7.1,7.1,0,0,0-.08-1.3ZM36.28,18.91a6,6,0,0,1-12,0,6,6,0,0,1-12,0,6,6,0,0,1-5.21,5.92V41.39a.19.19,0,0,0,.2.19h34a.19.19,0,0,0,.2-.19V24.83a6,6,0,0,1-5.22-5.92Zm9.78.25L42.8,6.63a1.18,1.18,0,0,0-1.07-.9H36.88l1.61,13v.14a3.79,3.79,0,0,0,7.57.25Zm-24-13.43H16.24L14.51,19a3.8,3.8,0,0,0,3.8,3.66,3.75,3.75,0,0,0,3.77-3.77Zm-10.26,0h-5a1.16,1.16,0,0,0-1.05.9L2.49,19.3a3.79,3.79,0,0,0,3.77,3.38,3.83,3.83,0,0,0,3.86-3.77v-.14ZM34.07,19,32.43,5.73H26.5V18.91a3.79,3.79,0,0,0,7.57.11Z"/><rect class="cls-2" x="0.28" y="0.28" width="47.99" height="47.99"/></g></g></svg>