<svg xmlns="http://www.w3.org/2000/svg" viewBox="0 0 48.56 48.56"><defs><style>.cls-1{fill:#f5f5f5;}.cls-2{fill:none;stroke:#141515;stroke-miterlimit:10;stroke-width:0.57px;}</style></defs><title>Recurso 38icono</title><g id="Capa_2" data-name="Capa 2"><g id="Capa_1-2" data-name="Capa 1"><path class="cls-1" d="M8,24.63V40.68H40.59v-16a6,6,0,0,1-4.28-5.75,6,6,0,1,1-12,0,6,6,0,1,1-12,0A6,6,0,0,1,8,24.63Zm28.29-5.75L34.38,3.51h7.43A3.47,3.47,0,0,1,45,6.07l3.31,12.81A6,6,0,0,1,45,24.24V41.41a3.67,3.67,0,0,1-3.66,3.66h-34a3.64,3.64,0,0,1-3.65-3.66V24.26h0A6,6,0,0,1,.28,18.88H.34L3.69,6.07A3.41,3.41,0,0,1,6.8,3.51h7.54l-2,15.37,2-15.37h20Zm-3.8.2L31.07,7.29h-3V18.88a2.21,2.21,0,0,0,4.42.2Zm-12-11.79H17.66L16.1,19.08a2.27,2.27,0,0,0,2.21,2,2.22,2.22,0,0,0,2.21-2.24ZM37.79,32l-.09-.34h-6V34h3.66a2.6,2.6,0,0,1-.63,1.3,3.4,3.4,0,0,1-2.52,1,3.86,3.86,0,0,1-2.72-1.11A3.68,3.68,0,0,1,34.67,30l.28.26,1.7-1.71-.31-.28a6.33,6.33,0,0,0-4.14-1.73,6.26,6.26,0,0,0-4.34,1.76,6,6,0,0,0-1.81,4.31,5.78,5.78,0,0,0,1.76,4.19,6.53,6.53,0,0,0,4.45,1.85A5.84,5.84,0,0,0,36.34,37a5.55,5.55,0,0,0,1.53-3.71A5.49,5.49,0,0,0,37.79,32ZM10,7.29H7.26L4.11,19.36a2.29,2.29,0,0,0,2.18,1.76,2.29,2.29,0,0,0,2.27-2.24v-.23Zm34.45,12-3.12-12h-2.7l1.42,11.36v.23a2.21,2.21,0,0,0,4.4.37Z"/><rect class="cls-2" x="0.28" y="0.28" width="47.99" height="47.99"/></g></g></svg>