<svg xmlns="http://www.w3.org/2000/svg" viewBox="0 0 48.19 48.19"><defs><style>.cls-1{fill:#fff;}.cls-2{fill:none;stroke:#2b2926;stroke-miterlimit:10;stroke-width:0.2px;}</style></defs><title>pinterest-escalaicono</title><g id="Capa_2" data-name="Capa 2"><g id="Capa_1-2" data-name="Capa 1"><path class="cls-1" d="M15.92,39.87a18.21,18.21,0,0,1,.45-4.82C16.85,33.55,19,24,19,24a8.24,8.24,0,0,1-.63-3.34c0-3.12,1.73-5.33,4-5.33,2,0,2.86,1.36,2.86,3.15,0,2-1.1,4.59-1.75,7.28a3.22,3.22,0,0,0,2.35,3.91,5.28,5.28,0,0,0,1,.09c4,0,6.58-5.1,6.58-11.06,0-4.59-3.12-7.93-8.59-7.93a9.79,9.79,0,0,0-10.15,9.44v.48a5.57,5.57,0,0,0,1.36,4c.46.46.46.63.23,1.11a4.27,4.27,0,0,1-.48,1.73.86.86,0,0,1-1.08.51,0,0,0,0,0,0,0c-3.12-1.11-4.45-4.19-4.45-7.71,0-5.95,4.85-13,14.77-13,8,0,13,5.73,13,11.9,0,8.2-4.45,14.15-11.28,14.15-2.24,0-4.45-1.11-5.11-2.61,0,0-1.1,4.85-1.5,5.7a38.4,38.4,0,0,1-2,4.45Z"/><rect class="cls-2" x="0.1" y="0.1" width="47.99" height="47.99"/></g></g></svg>