<svg xmlns="http://www.w3.org/2000/svg" viewBox="0 0 48.19 48.19"><defs><style>.cls-1{fill:#fff;fill-rule:evenodd;}.cls-2{fill:none;stroke:#2b2926;stroke-miterlimit:10;stroke-width:0.2px;}</style></defs><title>Recurso 84icono</title><g id="Capa_2" data-name="Capa 2"><g id="Capa_1-2" data-name="Capa 1"><path class="cls-1" d="M18.72,24.17c-.39,1.75-.79,3.54-1.19,5.3-.25,1.1-.51,2.18-.79,3.26-.17.68-.31,1.36-.51,2,0,0,0,0,0,0a18.17,18.17,0,0,0-.45,4.82.39.39,0,0,0,.19.28l2.19,1a.3.3,0,0,0,.42-.14,42.59,42.59,0,0,0,2-4.37v0a18.26,18.26,0,0,0,.79-2.75c.12-.49.23-1,.34-1.42a.41.41,0,0,1,.26-.28.43.43,0,0,1,.37.08,7.08,7.08,0,0,0,4.39,1.53A10.54,10.54,0,0,0,32.19,32c4.25-2.67,5.87-7.91,5.87-12.67a10.89,10.89,0,0,0-.54-3.46C35.79,10.33,30.57,7.3,25,7.3a15.23,15.23,0,0,0-11.14,4.28,12.92,12.92,0,0,0-3.69,8.82c0,3.31,1.22,6.66,4.6,7.85,0,0,0,0,0,0a1.16,1.16,0,0,0,1.48-.66v0a4.94,4.94,0,0,0,.48-1.68c0-.05,0-.08,0-.11a1,1,0,0,0-.34-1.33s0,0,0,0a5.17,5.17,0,0,1-1.22-3.63v-.51a9.31,9.31,0,0,1,9.64-8.93c4.62,0,8.08,2.61,8.08,7.46a16.48,16.48,0,0,1-1.33,6.69A6.57,6.57,0,0,1,28,29.13a3.93,3.93,0,0,1-1.28.19h0a3,3,0,0,1-.85-.05,2.85,2.85,0,0,1-2.07-3.43c.31-1.31.71-2.55,1.07-3.83a12.63,12.63,0,0,0,.66-3.4c0-2-1.08-3.4-3.15-3.4-2.89,0-4.22,3.06-4.22,5.55a8.88,8.88,0,0,0,.56,3.18.3.3,0,0,1,0,.23Z"/><rect class="cls-2" x="0.1" y="0.1" width="47.99" height="47.99"/></g></g></svg>