<svg xmlns="http://www.w3.org/2000/svg" viewBox="0 0 48.59 48.59"><defs><style>.cls-1{fill:#fff;}.cls-2{fill:none;stroke:#141515;stroke-miterlimit:10;stroke-width:0.57px;}</style></defs><title>Recurso 23icono</title><g id="Capa_2" data-name="Capa 2"><g id="Capa_1-2" data-name="Capa 1"><path class="cls-1" d="M12.64,46.83a25.73,25.73,0,0,1,.63-6.89C14,37.79,17,24.18,17,24.18a11.73,11.73,0,0,1-.91-4.76c0-4.45,2.49-7.6,5.67-7.6,2.83,0,4.08,1.93,4.08,4.45,0,2.84-1.59,6.58-2.49,10.43a4.65,4.65,0,0,0,4.76,5.7c5.67,0,9.41-7.26,9.41-15.76,0-6.61-4.48-11.37-12.27-11.37A14,14,0,0,0,10.8,18.74v.73a7.72,7.72,0,0,0,1.93,5.67c.68.68.68.91.34,1.59a6.51,6.51,0,0,1-.68,2.5,1.19,1.19,0,0,1-1.56.68h0c-4.45-1.59-6.35-6-6.35-11C4.45,10.4,11.37.31,25.54.31c11.34,0,18.6,8.17,18.6,17C44.14,29,37.79,37.5,28,37.5c-3.17,0-6.34-1.59-7.25-3.74,0,0-1.59,6.92-2.16,8.16a54,54,0,0,1-2.83,6.35Z"/><rect class="cls-2" x="0.28" y="0.28" width="48.02" height="48.02"/></g></g></svg>