<svg xmlns="http://www.w3.org/2000/svg" viewBox="0 0 48.22 48.22"><defs><style>.cls-1{fill:#fff;fill-rule:evenodd;}.cls-2{fill:none;stroke:#2b2926;stroke-miterlimit:10;stroke-width:0.23px;}</style></defs><title>pinteres-escala-retocadoicono</title><g id="Capa_2" data-name="Capa 2"><g id="Capa_1-2" data-name="Capa 1"><path class="cls-1" d="M18,24.09a8.16,8.16,0,0,1-.63-3.26c0-2.66,1.59-5.78,4.88-5.78A3.44,3.44,0,0,1,26,18.74a11.94,11.94,0,0,1-.68,3.43c-.4,1.24-.85,2.46-1.16,3.74a2.39,2.39,0,0,0,1.9,2.89,2.35,2.35,0,0,0,.79.06h.06a4.55,4.55,0,0,0,1.22-.17,6.23,6.23,0,0,0,3.48-3.35A14.13,14.13,0,0,0,33,19c0-4.5-3.45-6.91-8.19-6.91h0c-5.21-.17-9.61,3.57-9.78,8.36a3.39,3.39,0,0,0,0,.45v.06a4.37,4.37,0,0,0,1.21,3.29,1.3,1.3,0,0,1,.46,1.73,4.75,4.75,0,0,1-.57,1.78,1.7,1.7,0,0,1-2.1.82v0c-3.74-1.22-5.13-4.62-5.13-8a12.39,12.39,0,0,1,4-8.87A17.39,17.39,0,0,1,25,7.31c6.12,0,11.82,3.06,13.75,8.62a11.32,11.32,0,0,1,.56,3.49c0,4.82-1.78,10.06-6.43,12.7a11.94,11.94,0,0,1-6.07,1.56,8.2,8.2,0,0,1-4.93-1.59c-.14.45-.25.91-.37,1.39a18.68,18.68,0,0,1-.88,2.75,35.64,35.64,0,0,1-2.09,4.31.81.81,0,0,1-1,.31l-2.29-1a.65.65,0,0,1-.43-.6,16.07,16.07,0,0,1,.49-4.79.07.07,0,0,1,0-.06c.2-.62.37-1.3.54-1.95.29-1.05.57-2.1.82-3.18.43-1.73.88-3.46,1.31-5.19Z"/><rect class="cls-2" x="0.11" y="0.11" width="47.99" height="47.99"/></g></g></svg>