<svg xmlns="http://www.w3.org/2000/svg" viewBox="0 0 48.19 48.19"><defs><style>.cls-1{fill:#fff;}.cls-2{fill:none;stroke:#2b2926;stroke-miterlimit:10;stroke-width:0.2px;}</style></defs><title>telegram-escalaicono</title><g id="Capa_2" data-name="Capa 2"><g id="Capa_1-2" data-name="Capa 1"><path class="cls-1" d="M42.51,9.06l-6,30.44a2.3,2.3,0,0,1-3.26,1.11C28.59,37.06,24,33.58,19.4,30c-.28-.2-.22-.88.12-1.19C22.38,26.29,34.88,15,35.45,14.47s.45-.74.45-.74c0-.76-1.16,0-1.16,0C27.91,18,21.16,22.35,14.36,26.66a2.32,2.32,0,0,1-1.42.2l-8-2.72s-1.39-.48-1.47-1.51S4.92,21,4.92,21L39.84,7.33S42.51,7,42.51,9.06Z"/><rect class="cls-2" x="0.1" y="0.1" width="47.99" height="47.99"/></g></g></svg>