<svg xmlns="http://www.w3.org/2000/svg" viewBox="0 0 48.56 48.56"><defs><style>.cls-1{fill:#fefefe;}.cls-2{fill:none;stroke:#141515;stroke-miterlimit:10;stroke-width:0.57px;}</style></defs><title>Recurso 36icono</title><g id="Capa_2" data-name="Capa 2"><g id="Capa_1-2" data-name="Capa 1"><path class="cls-1" d="M48.27,5.84,40.88,43.2a2.83,2.83,0,0,1-4,1.36c-5.67-4.34-11.28-8.65-17-13-.34-.23-.29-1.05.11-1.42,3.54-3.17,18.88-17,19.59-17.66s.54-.9.54-.9c0-1-1.42,0-1.42,0-8.36,5.24-16.67,10.57-25,15.87a2.88,2.88,0,0,1-1.73.25L2.1,24.35S.43,23.75.28,22.48s1.87-2,1.87-2L45,3.69s3.26-.43,3.26,2.15Z"/><rect class="cls-2" x="0.28" y="0.28" width="47.99" height="47.99"/></g></g></svg>