<svg xmlns="http://www.w3.org/2000/svg" viewBox="0 0 48.19 48.19"><defs><style>.cls-1{fill:#fff;}.cls-2{fill:none;stroke:#2b2926;stroke-miterlimit:10;stroke-width:0.2px;}</style></defs><title>twitter-escalaicono</title><g id="Capa_2" data-name="Capa 2"><g id="Capa_1-2" data-name="Capa 1"><path class="cls-1" d="M40.15,15.6v1.2c0,11.19-8.47,24.09-23.89,24.09A23.15,23.15,0,0,1,3.56,37H5.63a17.6,17.6,0,0,0,10.31-3.57,8.31,8.31,0,0,1-7.82-6.1c.65,0,.88.34,1.53.34a3.7,3.7,0,0,0,2.07-.34,8.39,8.39,0,0,1-6.63-8.45A13.52,13.52,0,0,0,9,20.06a9,9,0,0,1-3.57-6.95A7.15,7.15,0,0,1,6.62,8.83a23.8,23.8,0,0,0,17.09,8.79c0-.65-.31-1.19-.31-1.85A8.28,8.28,0,0,1,31.48,7.3h.4A7.51,7.51,0,0,1,38,10.08a23.2,23.2,0,0,0,5.41-2,8.92,8.92,0,0,1-3.57,4.79,26.71,26.71,0,0,0,4.79-1.22,35.13,35.13,0,0,1-4.48,4Z"/><rect class="cls-2" x="0.1" y="0.1" width="47.99" height="47.99"/></g></g></svg>