<svg xmlns="http://www.w3.org/2000/svg" viewBox="0 0 48.22 48.22"><defs><style>.cls-1{fill:#fff;}.cls-2{fill:none;stroke:#2b2926;stroke-miterlimit:10;stroke-width:0.23px;}</style></defs><title>twitter-escala-retocado_1icono</title><g id="Capa_2" data-name="Capa 2"><g id="Capa_1-2" data-name="Capa 1"><path class="cls-1" d="M40.18,15.65v1.19c0,11.2-8.52,24.08-23.94,24.05A23.12,23.12,0,0,1,3.55,37H5.62a17.63,17.63,0,0,0,10.32-3.55A8.35,8.35,0,0,1,8.13,27.3c.65,0,.88.34,1.53.34a3.7,3.7,0,0,0,2.07-.34,8.4,8.4,0,0,1-6.62-8.46A13.52,13.52,0,0,0,9,20a9.07,9.07,0,0,1-3.56-6.95,7.23,7.23,0,0,1,1.2-4.28,23.82,23.82,0,0,0,17.11,8.82c0-.65-.34-1.19-.34-1.84a8.28,8.28,0,0,1,8.09-8.46h.4A7.55,7.55,0,0,1,38,10.12a23.45,23.45,0,0,0,5.44-2,8.91,8.91,0,0,1-3.6,4.78,25.47,25.47,0,0,0,4.79-1.21,33.28,33.28,0,0,1-4.49,4ZM12,18.23c1.93,1.91,3.4,3.07,5.41,5.06l-5.64.36c2.49,1.05,4.39,1.68,6.94,2.79l-4.23,3.22c2.09.46,5.49.78,6.88.95l1.87.26-1.3,1.36a39.92,39.92,0,0,1-4.8,4.52A17.88,17.88,0,0,0,30,30.2C33.27,26.46,36.09,21,35.53,16c-.28-2.52-.24-4.42-3.45-4.31h-.22a.34.34,0,0,0-.2,0c-2.38.06-3.72,2-3.72,4.42a29.35,29.35,0,0,1,.33,5.13v1l-1-.06A44.58,44.58,0,0,1,12,18.23Z"/><rect class="cls-2" x="0.11" y="0.11" width="47.99" height="47.99"/></g></g></svg>