<svg xmlns="http://www.w3.org/2000/svg" viewBox="0 0 48.56 48.56"><defs><style>.cls-1{fill:#fff;}.cls-2{fill:none;stroke:#141515;stroke-miterlimit:10;stroke-width:0.57px;}</style></defs><title>Recurso 28icono</title><g id="Capa_2" data-name="Capa 2"><g id="Capa_1-2" data-name="Capa 1"><path class="cls-1" d="M43.06,14.37v1.39c0,13.07-9.89,28.18-27.92,28.18A27.22,27.22,0,0,1,.28,39.34H2.69a20.68,20.68,0,0,0,12.08-4.16,9.69,9.69,0,0,1-9.16-7.12c.77,0,1,.37,1.79.37a4.66,4.66,0,0,0,2.41-.37,9.89,9.89,0,0,1-7.74-9.89,16.26,16.26,0,0,0,4.59,1.39,10.47,10.47,0,0,1-4.19-8.14,8.18,8.18,0,0,1,1.39-5,27.78,27.78,0,0,0,20,10.27c0-.74-.4-1.39-.4-2.16a9.68,9.68,0,0,1,9.44-9.89h.45a9,9,0,0,1,7.2,3.23A25.36,25.36,0,0,0,46.89,5.5a10.4,10.4,0,0,1-4.2,5.61,30.65,30.65,0,0,0,5.58-1.42,37.94,37.94,0,0,1-5.21,4.68Z"/><rect class="cls-2" x="0.28" y="0.28" width="47.99" height="47.99"/></g></g></svg>