<svg xmlns="http://www.w3.org/2000/svg" viewBox="0 0 48.21 48.22"><defs><style>.cls-1{fill:#fff;}.cls-2{fill:none;stroke:#141515;stroke-miterlimit:10;stroke-width:0.2px;}</style></defs><title>Recurso 35icono</title><g id="Capa_2" data-name="Capa 2"><g id="Capa_1-2" data-name="Capa 1"><path class="cls-1" d="M24.46.1A23.48,23.48,0,0,0,.84,23.46a24.51,24.51,0,0,0,3.31,12.1L.1,48,13.2,44a24,24,0,0,0,11.26,2.86A23.49,23.49,0,0,0,48.11,23.46C48.37,10.62,37.56.1,24.46.1Zm0,42.83a19.74,19.74,0,0,1-10.8-3.32l-7.49,2.3,2.58-7.23A20.06,20.06,0,0,1,4.89,23.14a19.76,19.76,0,0,1,39.51,0A19.87,19.87,0,0,1,24.46,42.9Zm7.2-16.16c-1.13-.71-2.6,1.73-3.31,2.58-.83,1.19-5.25-2.35-5.93-3a11.43,11.43,0,0,1-3-4.34,1,1,0,0,1,.29-1.3c.45-.6,2.07-1.84,1.56-3-.68-1.51-1.56-3.32-2.21-5-.83-1.82-2.3-.71-3.44.14a6.49,6.49,0,0,0-2.35,4.88c.45,6.09,7.18,13.29,12.25,15.67,2.61,1.11,9.73,3.74,11.32-.82,1.08-2.78.48-2.89.31-3.06a42.44,42.44,0,0,1-5.45-2.67Z"/><rect class="cls-2" x="0.1" y="0.1" width="48.01" height="48.02"/></g></g></svg>