<svg xmlns="http://www.w3.org/2000/svg" viewBox="0 0 48.22 48.22"><defs><style>.cls-1{fill:none;stroke:#2b2926;stroke-miterlimit:10;stroke-width:0.23px;}.cls-2{fill:#fff;fill-rule:evenodd;}</style></defs><title>whatsapp-escala-retocadoicono</title><g id="Capa_2" data-name="Capa 2"><g id="Capa_1-2" data-name="Capa 1"><rect class="cls-1" x="0.11" y="0.11" width="47.99" height="47.99"/><path class="cls-2" d="M17.21,37.84,7.29,40.9l3.06-9.46a16.86,16.86,0,0,1-2.07-8A16.34,16.34,0,0,1,41,23.5,16.32,16.32,0,0,1,17.21,37.84ZM26.65,26.7c.56-.68,1.53-2.32,2.6-1.64a23.93,23.93,0,0,0,3.21,1.59l.08,0,.06.06c.71.54.2,1.7-.06,2.35-1.05,3.06-5.36,1.68-7.48.8-3.32-1.59-7.4-6.13-7.68-9.9v-.05A4.4,4.4,0,0,1,19,16.61h0c.94-.68,2.13-1.36,2.81.11.4,1,.88,2,1.33,3s-.51,1.64-1,2.32l0,0,0,0a.18.18,0,0,0-.05.23h0l0,0a6,6,0,0,0,1.7,2.44l0,0c.37.37,2.33,1.87,2.9,1.84ZM24,35.15h.59a11.94,11.94,0,0,0,12-11.85,11.89,11.89,0,0,0-23.78,0,11.9,11.9,0,0,0,2.33,6.92l.31.42L14.26,34l3.48-1.08.37.26a11.62,11.62,0,0,0,5.9,2Z"/></g></g></svg>