<svg xmlns="http://www.w3.org/2000/svg" viewBox="0 0 48.19 48.19"><defs><style>.cls-1{fill:#fff;}.cls-2{fill:none;stroke:#2b2926;stroke-miterlimit:10;stroke-width:0.2px;}</style></defs><title>whatsapp-escalaicono</title><g id="Capa_2" data-name="Capa 2"><g id="Capa_1-2" data-name="Capa 1"><path class="cls-1" d="M24.34,7.24A16.51,16.51,0,0,0,7.78,23.63a17.41,17.41,0,0,0,2.33,8.47L7.27,40.86,16.46,38a17.1,17.1,0,0,0,7.9,2A16.47,16.47,0,0,0,40.92,23.63c.2-9-7.37-16.39-16.58-16.39Zm0,30.05A13.86,13.86,0,0,1,16.77,35l-5.25,1.61,1.82-5.07a14.31,14.31,0,0,1-2.72-8.08,13.86,13.86,0,0,1,27.72,0,14,14,0,0,1-14,13.83ZM29.41,26c-.79-.48-1.84,1.22-2.35,1.82-.57.82-3.66-1.68-4.14-2.13a7.88,7.88,0,0,1-2.13-3,.75.75,0,0,1,.2-.91c.31-.45,1.45-1.3,1.08-2.16-.46-1-1.08-2.32-1.53-3.51s-1.62-.48-2.41.08a4.61,4.61,0,0,0-1.65,3.43c.32,4.29,5,9.33,8.59,11,1.82.77,6.83,2.64,7.91-.56.77-2,.37-2,.23-2.16A26.31,26.31,0,0,1,29.41,26Z"/><rect class="cls-2" x="0.1" y="0.1" width="47.99" height="47.99"/></g></g></svg>