<svg xmlns="http://www.w3.org/2000/svg" viewBox="0 0 48 48"><path class="social-icon" d="M8,15.6l15.25,6.64a1.63,1.63,0,0,0,1.75,0L40.27,15.6a.89.89,0,0,0,.56-1.19.91.91,0,0,0-.56-.56L25,7.53a1.72,1.72,0,0,0-1.75,0L8,13.79C6.9,14.1,6.9,15,8,15.58Zm32.23,7.49h0c.82.62.82,1.44,0,1.76L25,31.48a1.82,1.82,0,0,1-1.78,0L8,24.85c-1.17-.63-1.17-1.45,0-1.76l3.4-1.45L23.26,26.8a1.78,1.78,0,0,0,1.76,0l12.13-5.16,3.06,1.45Zm0,9.18h0l-3.21-1.44L24.93,36a1.78,1.78,0,0,1-1.76,0L11.35,30.83,8,32.27c-1.16.29-1.16,1.45,0,1.76l15.22,6.63a1.78,1.78,0,0,0,1.76,0L40.18,34c1.22-.28,1.22-1.11.09-1.73Z"/></svg>