<svg xmlns="http://www.w3.org/2000/svg" viewBox="0 0 48 48"><path class="social-icon" d="M22.35,27.2c2.41,1.61,1.22,1.16,3.37,0a6.2,6.2,0,0,0,.88.82L41.12,39.84H6.87c.2-.28,3.46-2.83,3.83-3.15l8.7-7c.91-.71,2-1.79,3-2.44Zm3.71-.2L39.3,17.5c.68-.45,1.25-.9,1.93-1.36V39.22c-.71-.48-1.19-1-1.87-1.53a5.63,5.63,0,0,1-.43-.4l-2.38-2c-.34-.28-.59-.48-.93-.73ZM6.79,39.1c0-2.09.08-3.85.08-5.89V24.05c0-1,.12-1.84.12-2.95l0-4.53c.14-.43.51.06.82.28l3.54,2.5c.62.45,1.16.79,1.79,1.27,2.21,1.67,4.87,3.43,7.11,5.1.29.2.54.37.85.6s.71.34.82.77A28.06,28.06,0,0,0,19,29.24c-3.94,3.2-7.76,6.09-11.7,9.47-.29.25-.17.28-.54.39ZM5.2,8.23H43L24.34,21.61a.1.1,0,0,1-.06,0l-.23.2c-4.79-3.2-9.58-7-14.17-10.18L5.77,8.72c-.26-.2-.4-.23-.57-.49ZM2.14,11.1V37.32a4.18,4.18,0,0,0,3.57,3.57H42.28A4.08,4.08,0,0,0,46.08,37V11.41A4.11,4.11,0,0,0,45,8.6a4.31,4.31,0,0,0-2.61-1.3H5.83a4.1,4.1,0,0,0-3.69,3.8Z"/></svg>