<svg xmlns="http://www.w3.org/2000/svg" viewBox="0 0 48 48"><path class="social-icon" d="M17.38,7.31H30.84A10,10,0,0,1,40.9,17.15V31.07a10,10,0,0,1-10.06,9.86H17.38A10,10,0,0,1,7.31,31.07V17.15A10,10,0,0,1,17.38,7.31Zm14.14,7.37a2,2,0,1,1-2.07,2,2.07,2.07,0,0,1,2.07-2Zm-7.31,1.76h0a7.4,7.4,0,1,0,7.45,7.4,7.51,7.51,0,0,0-7.45-7.4Zm0,3.49A4.14,4.14,0,1,1,20,24.07a4.25,4.25,0,0,1,4.17-4.14Zm-6.27-8.14h0a5.9,5.9,0,0,0-5.84,5.67v13a5.91,5.91,0,0,0,5.84,5.7H30.3a5.87,5.87,0,0,0,5.81-5.7V17.72a5.86,5.86,0,0,0-5.81-5.67Z"/></svg>