<svg viewBox="0 0 48 48"><path class="social-icon" d="M32,23.61l-.08-.05h0c-4.45-2.58-8.73-4.94-13.1-7.43V31l.12-.08V31c4.59-2.69,9.41-5.19,13.09-7.4ZM20.41,40.93c-8.25-.17-11.06-.31-12.78-.71a5.46,5.46,0,0,1-2.92-1.7,7.41,7.41,0,0,1-1.39-3,20.45,20.45,0,0,1-.6-4.37A119,119,0,0,1,2.72,17c.28-2.61.4-5.73,2.16-7.52A5.47,5.47,0,0,1,7.77,7.91c1.67-.37,8.9-.65,16.35-.65s14.69.28,16.39.65a5.44,5.44,0,0,1,3.34,2.21c1.62,2.81,1.65,6.29,1.82,9,0,1.31,0,8.68,0,10-.26,4.31-.46,5.84-1.05,7.43a5.48,5.48,0,0,1-1.16,2.1,5.79,5.79,0,0,1-3,1.73,190.31,190.31,0,0,1-20,.59ZM7.46,17.66a110.72,110.72,0,0,0,0,13,18.07,18.07,0,0,0,.4,3.2,3.91,3.91,0,0,0,.34.94,1.51,1.51,0,0,0,.62.31,21,21,0,0,0,3.24.34c2.8.14,5.66.2,8.47.26a184.08,184.08,0,0,0,18.94-.57,1.55,1.55,0,0,0,.54-.31v0a1.82,1.82,0,0,0,.17-.43,22.8,22.8,0,0,0,.7-5.72c.09-1.48.06-3.09.06-4.54s0-3.09-.06-4.56c-.08-1.84-.11-4.56-1-6.27a1.32,1.32,0,0,0-.6-.28,36.73,36.73,0,0,0-5.27-.37q-5-.17-9.95-.17t-10,.17A36.73,36.73,0,0,0,8.9,13a1.31,1.31,0,0,0-.71.4c-.42.45-.65,3.43-.73,4.25Z"/></svg>