<svg id="Capa_1" data-name="Capa 1" xmlns="http://www.w3.org/2000/svg" xmlns:xlink="http://www.w3.org/1999/xlink" viewBox="0 0 102.7 1540.57"><defs><style>.cls-1{fill:none;}.cls-2{fill:#30a3e6;}.cls-3{fill:#fefefe;}.cls-4{fill:#c2dee6;}.cls-5{fill:#6c97cc;}.cls-6{opacity:0.47;isolation:isolate;fill:url(#Degradado_sin_nombre_3);}.cls-7{fill:#f7f7f8;}.cls-8{fill:#9bbbe1;}.cls-9{fill:#697fb7;}.cls-10{fill:#88a5c9;}.cls-11{fill:#5c70a4;}.cls-12{fill:#1e1e1e;}.cls-13,.cls-216,.cls-218{fill:#fff;}.cls-14{fill:#d42428;}.cls-15{clip-path:url(#clip-path);}.cls-16{fill:#6469a7;}.cls-17{fill:#eed37a;}.cls-18{fill:#eed27a;}.cls-19{fill:#edd178;}.cls-20{fill:#edcf77;}.cls-21{fill:#edcf76;}.cls-22{fill:#eccd76;}.cls-23{fill:#eccc75;}.cls-24{fill:#eccb74;}.cls-25{fill:#ebc972;}.cls-26{fill:#e9c771;}.cls-27{fill:#ebc871;}.cls-28{fill:#eac570;}.cls-29{fill:#e8c46d;}.cls-30{fill:#e9c36d;}.cls-31{fill:#e9c26a;}.cls-32{fill:#e7c16c;}.cls-33{fill:#e6be6a;}.cls-34{fill:#e6be69;}.cls-35{fill:#e5bc69;}.cls-36{fill:#e5bb66;}.cls-37{fill:#e5ba66;}.cls-38{fill:#e5b966;}.cls-39{fill:#e4b864;}.cls-40{fill:#e4b663;}.cls-41{fill:#e6b863;}.cls-42{fill:#e3b563;}.cls-43{fill:#e5b462;}.cls-44{fill:#e4b35f;}.cls-45{fill:#e2b25f;}.cls-46{fill:#e1b160;}.cls-47{fill:#e4b360;}.cls-48{fill:#e3b25d;}.cls-49{fill:#e3af5c;}.cls-50{fill:#e1ad5d;}.cls-51{fill:#dfab5c;}.cls-52{fill:#dfaa5c;}.cls-53{fill:#dea859;}.cls-54{fill:#dea659;}.cls-55{fill:#dda257;}.cls-56{fill:#dca054;}.cls-57{fill:#dc9e54;}.cls-58{fill:#dc9e52;}.cls-59{fill:#da9a51;}.cls-60{fill:#da9851;}.cls-61{fill:#db964d;}.cls-62{fill:#d8934d;}.cls-63{fill:#d8924c;}.cls-64{fill:#d68e4a;}.cls-65{fill:#d58a49;}.cls-66{fill:#d48747;}.cls-67{fill:#d38646;}.cls-68{fill:#d38344;}.cls-69{fill:#d28144;}.cls-70{fill:#d18043;}.cls-71{fill:#d27d3f;}.cls-72{fill:#d17b3f;}.cls-73{fill:#d0793c;}.cls-74{fill:#d0773c;}.cls-75{fill:#cf753b;}.cls-76{fill:#cd7239;}.cls-77{fill:#ce703a;}.cls-78{fill:#cc6c36;}.cls-79{fill:#cb6b36;}.cls-80{fill:#ca6a35;}.cls-81{fill:#c96532;}.cls-82{fill:#c86333;}.cls-83{fill:#c66331;}.cls-84{fill:#c66332;}.cls-85{fill:#c66134;}.cls-86{fill:#c66135;}.cls-87{fill:#c46037;}.cls-88{fill:#c45e37;}.cls-89{fill:#c55e3a;}.cls-90{fill:#c25d3a;}.cls-91{fill:#c25d3c;}.cls-92{fill:#c15e3d;}.cls-93{fill:#c15e3f;}.cls-94{fill:#c25e41;}.cls-95{fill:#c25f43;}.cls-96{fill:#c05e45;}.cls-97{fill:#c05f46;}.cls-98{fill:#c15f49;}.cls-99{fill:#bf5d49;}.cls-100{fill:#c05d4b;}.cls-101{fill:#c05d4d;}.cls-102{fill:#be5c4f;}.cls-103{fill:#be5c51;}.cls-104{fill:#bf5c54;}.cls-105{fill:#bf5c55;}.cls-106{fill:#bd5c55;}.cls-107{fill:#bb5856;}.cls-108{fill:#bb5858;}.cls-109{fill:#bc595a;}.cls-110{fill:#b9565a;}.cls-111{fill:#b8555c;}.cls-112{fill:#b8555e;}.cls-113{fill:#b8555f;}.cls-114{fill:#b65460;}.cls-115{fill:#b65461;}.cls-116{fill:#b55362;}.cls-117{fill:#b55363;}.cls-118{fill:#b35265;}.cls-119{fill:#b25065;}.cls-120{fill:#b35066;}.cls-121{fill:#b35067;}.cls-122{fill:#b05068;}.cls-123{fill:#af4d68;}.cls-124{fill:#af4c6a;}.cls-125{fill:#ad4969;}.cls-126{fill:#ad496a;}.cls-127{fill:#ad496b;}.cls-128{fill:#ad496d;}.cls-129{fill:#aa466c;}.cls-130{fill:#aa466d;}.cls-131{fill:#aa466f;}.cls-132{fill:#a94470;}.cls-133{fill:#a74271;}.cls-134{fill:#a74272;}.cls-135{fill:#a54272;}.cls-136{fill:#a43f73;}.cls-137{fill:#a33f73;}.cls-138{fill:#a33f74;}.cls-139{fill:#a13d74;}.cls-140{fill:#a23e76;}.cls-141{fill:#a13d78;}.cls-142{fill:#a13d7a;}.cls-143{fill:#9f3b7b;}.cls-144{fill:#a1387d;}.cls-145{fill:#a0377f;}.cls-146{fill:#a03781;}.cls-147{fill:#a13985;}.cls-148{fill:#a03684;}.cls-149{fill:#9f3686;}.cls-150{fill:#9f3789;}.cls-151{fill:#9d3489;}.cls-152{fill:#9c3689;}.cls-153{fill:#993689;}.cls-154{fill:#9b3689;}.cls-155{fill:#98378a;}.cls-156{fill:#973a8b;}.cls-157{fill:#963a8b;}.cls-158{fill:#933b8b;}.cls-159{fill:#943d8c;}.cls-160{fill:#933e8c;}.cls-161{fill:#93418d;}.cls-162{fill:#91418d;}.cls-163{fill:#90408d;}.cls-164{fill:#8f428e;}.cls-165{fill:#90438e;}.cls-166{fill:#8d438e;}.cls-167{fill:#8c458f;}.cls-168{fill:#8c4790;}.cls-169{fill:#8a4790;}.cls-170{fill:#884890;}.cls-171{fill:#884a91;}.cls-172{fill:#864a91;}.cls-173{fill:#864b92;}.cls-174{fill:#844c92;}.cls-175{fill:#854e93;}.cls-176{fill:#864f94;}.cls-177{fill:#845195;}.cls-178{fill:#835195;}.cls-179{fill:#825295;}.cls-180{fill:#845396;}.cls-181{fill:#855497;}.cls-182{fill:#855496;}.cls-183{fill:#845697;}.cls-184{fill:#835697;}.cls-185{fill:#835798;}.cls-186{fill:#825899;}.cls-187{fill:#815799;}.cls-188{fill:#815999;}.cls-189{fill:#7e5899;}.cls-190{fill:#805999;}.cls-191{fill:#7c5799;}.cls-192{fill:#7b5799;}.cls-193{fill:#7a5a9b;}.cls-194{fill:#795b9b;}.cls-195{fill:#795e9d;}.cls-196{fill:#775d9d;}.cls-197{fill:#755f9e;}.cls-198{fill:#75609f;}.cls-199{fill:#74609f;}.cls-200{fill:#7461a0;}.cls-201{fill:#7361a0;}.cls-202{fill:#7363a1;}.cls-203{fill:#7163a1;}.cls-204{fill:#7064a2;}.cls-205{fill:#7066a4;}.cls-206{fill:#6e66a4;}.cls-207{fill:#6d66a4;}.cls-208{fill:#6c67a5;}.cls-209{fill:#6a66a5;}.cls-210{fill:#6a68a6;}.cls-211{fill:#6868a6;}.cls-212{fill:#6669a7;}.cls-213{fill:#666ba8;}.cls-214{fill:#646ba9;}.cls-215{fill:#4a65a0;}.cls-216{stroke:#1e1e1e;stroke-miterlimit:22.93;stroke-width:0.6px;}.cls-217{fill:#5fd26a;}.cls-218,.cls-219,.cls-229{fill-rule:evenodd;}.cls-219{fill:#0077b5;}.cls-220{fill:#1da1f2;}.cls-221{fill:#bd081c;}.cls-222{fill:#b6d7e8;}.cls-223{fill:#eee;}.cls-224{fill:#e0e0e0;}.cls-225{fill:#adaba1;}.cls-226{fill:#b23121;}.cls-227{fill:#dd5145;}.cls-228{fill:#93908c;}.cls-229{fill:#b3b3b3;}</style><linearGradient id="Degradado_sin_nombre_3" x1="61.42" y1="-741.9" x2="48.65" y2="-717.43" gradientTransform="matrix(1, 0, 0, -1, 0, 251.63)" gradientUnits="userSpaceOnUse"><stop offset="0" stop-color="#697fb7" stop-opacity="0"/><stop offset="0.14" stop-color="#677db4" stop-opacity="0.05"/><stop offset="0.33" stop-color="#6378ad" stop-opacity="0.19"/><stop offset="0.56" stop-color="#5b6fa2" stop-opacity="0.42"/><stop offset="0.81" stop-color="#506392" stop-opacity="0.73"/><stop offset="1" stop-color="#475984"/></linearGradient><clipPath id="clip-path"><path class="cls-1" d="M52.75,694.11H49.61a26.55,26.55,0,0,1,0-53h3.14a26.56,26.56,0,0,1,24.88,26.5A25.8,25.8,0,0,1,52.75,694.11Z"/></clipPath></defs><title>spriters-wfs</title><path class="cls-2" d="M77.58,1078.34a26.5,26.5,0,1,1-26.52-26.48,26.5,26.5,0,0,1,26.52,26.48Z"/><path class="cls-3" d="M64.67,1067.16l-4.85,24.48a1.87,1.87,0,0,1-2.62.9L46.09,1084c-.24-.15-.2-.7.08-.93L59,1071.5c.54-.51.35-.59.35-.59,0-.62-.94,0-.94,0-5.48,3.44-10.91,6.92-16.39,10.41a2,2,0,0,1-1.13.15l-6.5-2.19s-1.09-.39-1.17-1.21,1.21-1.29,1.21-1.29l28.09-11s2.15-.28,2.15,1.41Z"/><path class="cls-4" d="M51.2,1002.2a26.5,26.5,0,1,0-26.46-26.55c0,.13,0,.26,0,.4a26.14,26.14,0,0,0,26.13,26.15h.32Z"/><rect class="cls-5" x="35.46" y="970.39" width="31.52" height="21.15" rx="2.79" ry="2.79"/><path class="cls-6" d="M64.43,991.54H51.31L35.46,975.65v-2.71A2.55,2.55,0,0,1,38,970.39H64.43A2.56,2.56,0,0,1,67,972.94V989A2.56,2.56,0,0,1,64.43,991.54Z"/><path class="cls-7" d="M64.3,984l0-.26H59.69v1.8h2.78a2,2,0,0,1-.48,1,2.75,2.75,0,0,1-1.93.79h0a3,3,0,0,1-2.07-.86,2.81,2.81,0,0,1,3.94-4l.22.21,1.29-1.31-.24-.22a4.75,4.75,0,0,0-3.16-1.3h0a4.6,4.6,0,0,0-3.29,1.34,4.55,4.55,0,0,0-1.39,3.28,4.38,4.38,0,0,0,1.34,3.19h0a4.9,4.9,0,0,0,3.4,1.4h0a4.38,4.38,0,0,0,3.1-1.23A4.22,4.22,0,0,0,64.37,985,4.76,4.76,0,0,0,64.3,984Z"/><path class="cls-8" d="M43.61,959.85,42,971.58h-9.1l2.55-9.78a2.59,2.59,0,0,1,2.38-1.95Z"/><polygon class="cls-9" points="51.22 959.86 51.22 971.58 42.08 971.58 43.61 959.86 51.22 959.86"/><polygon class="cls-8" points="60.36 971.58 51.22 971.58 51.22 959.86 58.91 959.86 60.36 971.58"/><path class="cls-9" d="M69.5,971.58H60.36l-1.45-11.73h5.66A2.65,2.65,0,0,1,67,961.8Z"/><path class="cls-10" d="M42,971.58a4.57,4.57,0,1,1-9.14,0Z"/><path class="cls-11" d="M51.22,971.58a4.57,4.57,0,1,1-9.14,0Z"/><path class="cls-10" d="M60.36,971.58a4.57,4.57,0,1,1-9.14,0Z"/><path class="cls-11" d="M69.5,971.58a4.57,4.57,0,1,1-9.14,0Z"/><path class="cls-12" d="M51.35,899.49a26.45,26.45,0,1,0-.1,0Z"/><path class="cls-13" d="M35.51,864.77l14.93,6.5a1.73,1.73,0,0,0,1.73,0l14.93-6.5a.91.91,0,0,0,.55-1.18.93.93,0,0,0-.55-.55l-14.93-6.19a1.73,1.73,0,0,0-1.73,0L35.51,863c-1.12.3-1.12,1.12,0,1.73Zm31.58,7.31c.81.61.81,1.42,0,1.73l-14.93,6.5a1.73,1.73,0,0,1-1.73,0l-14.93-6.5c-1.12-.61-1.12-1.42,0-1.73l3.35-1.42,11.57,5.08a1.73,1.73,0,0,0,1.73,0L64,870.66l3,1.42Zm0,9-3.15-1.42-11.88,5.08a1.73,1.73,0,0,1-1.73,0l-11.57-5.08-3.35,1.42c-1.12.3-1.12,1.42,0,1.73l14.93,6.5a1.73,1.73,0,0,0,1.73,0L67,882.81c1.2-.28,1.2-1.09.09-1.7Z"/><path class="cls-14" d="M77.85,770.29a26.5,26.5,0,1,0-26.5,26.5A26.49,26.49,0,0,0,77.85,770.29Z"/><path class="cls-13" d="M66.78,764.6A4.54,4.54,0,0,0,62.25,760h-21a4.53,4.53,0,0,0-4.47,4.57v12a4.54,4.54,0,0,0,4.47,4.57h21a4.55,4.55,0,0,0,4.57-4.53v-12Zm-18,11.07V764.29L57.41,770Z"/><g class="cls-15"><rect class="cls-16" x="24.83" y="641" width="53.1" height="53.1"/></g><g class="cls-15"><path class="cls-17" d="M40.16,695.73a1.62,1.62,0,1,0-1.62,1.62,1.67,1.67,0,0,0,1.62-1.62Zm.31,0a1.91,1.91,0,0,1-1.83,1.93,1.85,1.85,0,0,1-1.83-1.93,1.91,1.91,0,0,1,1.83-1.93A1.84,1.84,0,0,1,40.47,695.73Z"/></g><g class="cls-15"><path class="cls-17" d="M40.37,695.73a1.8,1.8,0,0,0-1.73-1.83,1.73,1.73,0,0,0-1.72,1.83,1.8,1.8,0,0,0,1.72,1.83,2,2,0,0,0,1.73-1.83Zm.3,0a2.12,2.12,0,0,1-2,2.13,2.06,2.06,0,0,1-2-2.13,2,2,0,1,1,4.06,0Z"/></g><g class="cls-15"><path class="cls-18" d="M40.57,695.73a2,2,0,0,0-1.93-2,2,2,0,0,0-1.93,2,2,2,0,0,0,1.93,2,2.17,2.17,0,0,0,1.93-2Zm.31,0a2.24,2.24,0,1,1-2.24-2.23A2.13,2.13,0,0,1,40.88,695.73Z"/></g><g class="cls-15"><path class="cls-19" d="M40.77,695.73a2.13,2.13,0,1,0-2.13,2.13,2.14,2.14,0,0,0,2.13-2.13Zm.21,0a2.44,2.44,0,1,1-2.44-2.44A2.3,2.3,0,0,1,41,695.73Z"/></g><g class="cls-15"><path class="cls-19" d="M41,695.73a2.34,2.34,0,1,0-2.34,2.33A2.36,2.36,0,0,0,41,695.73Zm.2,0a2.62,2.62,0,0,1-2.64,2.64,2.69,2.69,0,0,1-2.64-2.64,2.62,2.62,0,0,1,2.64-2.64A2.51,2.51,0,0,1,41.18,695.73Z"/></g><g class="cls-15"><path class="cls-20" d="M41.08,695.73a2.54,2.54,0,1,0-2.54,2.54,2.52,2.52,0,0,0,2.54-2.54Zm.3,0a2.84,2.84,0,1,1-2.84-2.84A2.72,2.72,0,0,1,41.38,695.73Z"/></g><g class="cls-15"><path class="cls-21" d="M41.28,695.73a2.74,2.74,0,1,0-2.74,2.74,2.73,2.73,0,0,0,2.74-2.74Zm.31,0a3,3,0,0,1-3.05,3,3,3,0,1,1,0-6.1A2.94,2.94,0,0,1,41.59,695.73Z"/></g><g class="cls-15"><path class="cls-21" d="M41.48,695.73a2.94,2.94,0,1,0-2.94,2.94,2.94,2.94,0,0,0,2.94-2.94Zm.31,0a3.25,3.25,0,1,1-3.25-3.25A3.15,3.15,0,0,1,41.79,695.73Z"/></g><g class="cls-15"><path class="cls-21" d="M41.69,695.73a3.15,3.15,0,1,0-3.15,3.15,3.16,3.16,0,0,0,3.15-3.15Zm.3,0a3.45,3.45,0,1,1-3.45-3.45A3.36,3.36,0,0,1,42,695.73Z"/></g><g class="cls-15"><path class="cls-22" d="M41.89,695.73a3.35,3.35,0,1,0-3.35,3.35,3.38,3.38,0,0,0,3.35-3.35Zm.31,0a3.66,3.66,0,1,1-3.66-3.66A3.64,3.64,0,0,1,42.2,695.73Z"/></g><g class="cls-15"><path class="cls-23" d="M42.09,695.73a3.55,3.55,0,1,0-3.55,3.55,3.53,3.53,0,0,0,3.55-3.55Zm.31,0a3.86,3.86,0,1,1-3.86-3.86A3.86,3.86,0,0,1,42.4,695.73Z"/></g><g class="cls-15"><path class="cls-24" d="M42.3,695.73A3.76,3.76,0,0,0,38.54,692a3.82,3.82,0,0,0-3.76,3.76,3.76,3.76,0,0,0,3.76,3.76,3.82,3.82,0,0,0,3.76-3.76Zm.3,0a4.06,4.06,0,1,1-4.06-4.06A4.08,4.08,0,0,1,42.6,695.73Z"/></g><g class="cls-15"><path class="cls-24" d="M42.5,695.73a3.91,3.91,0,0,0-4-4,4,4,0,0,0-4,4,3.91,3.91,0,0,0,4,4,4,4,0,0,0,4-4Zm.3,0a4.26,4.26,0,1,1-4.26-4.26A4.21,4.21,0,0,1,42.8,695.73Z"/></g><g class="cls-15"><path class="cls-24" d="M42.7,695.73a4.16,4.16,0,1,0-4.16,4.16,4.18,4.18,0,0,0,4.16-4.16Zm.31,0a4.47,4.47,0,1,1-4.47-4.47A4.44,4.44,0,0,1,43,695.73Z"/></g><g class="cls-15"><path class="cls-24" d="M42.91,695.73a4.37,4.37,0,1,0-4.37,4.37,4.41,4.41,0,0,0,4.37-4.37Zm.3,0a4.66,4.66,0,0,1-4.67,4.67,4.72,4.72,0,0,1-4.67-4.67,4.67,4.67,0,0,1,9.34,0Z"/></g><g class="cls-15"><path class="cls-25" d="M43.11,695.73a4.57,4.57,0,1,0-4.57,4.57,4.55,4.55,0,0,0,4.57-4.57Zm.3,0a4.87,4.87,0,1,1-4.87-4.87A4.87,4.87,0,0,1,43.41,695.73Z"/></g><g class="cls-15"><path class="cls-26" d="M43.31,695.73a4.77,4.77,0,1,0-4.77,4.77,4.76,4.76,0,0,0,4.77-4.77Zm.31,0a5,5,0,0,1-5.08,5.08,5.1,5.1,0,0,1-5.08-5.08,5.08,5.08,0,0,1,10.16,0Z"/></g><g class="cls-15"><path class="cls-25" d="M43.52,695.73a5,5,0,1,0-5,5,5,5,0,0,0,5-5Zm.3,0A5.25,5.25,0,0,1,38.54,701a5.31,5.31,0,0,1-5.28-5.28,5.28,5.28,0,0,1,10.56,0Z"/></g><g class="cls-15"><path class="cls-27" d="M43.72,695.73a5.18,5.18,0,1,0-5.18,5.18,5.21,5.21,0,0,0,5.18-5.18Zm.3,0a5.43,5.43,0,0,1-5.38,5.48,5.37,5.37,0,0,1-5.38-5.48,5.38,5.38,0,1,1,10.76,0Z"/></g><g class="cls-15"><path class="cls-27" d="M43.92,695.73a5.28,5.28,0,1,0-10.56,0,5.28,5.28,0,1,0,10.56,0Zm.31,0A5.59,5.59,0,1,1,38.64,690,5.66,5.66,0,0,1,44.23,695.73Z"/></g><g class="cls-15"><path class="cls-28" d="M44.12,695.73a5.54,5.54,0,0,0-5.48-5.58,5.48,5.48,0,0,0-5.48,5.58,5.54,5.54,0,0,0,5.48,5.58,5.67,5.67,0,0,0,5.48-5.58Zm.31,0a5.87,5.87,0,0,1-5.79,5.89,5.81,5.81,0,0,1-5.79-5.89,5.79,5.79,0,1,1,11.58,0Z"/></g><g class="cls-15"><path class="cls-28" d="M44.33,695.73a5.77,5.77,0,0,0-5.69-5.79A5.69,5.69,0,0,0,33,695.73a5.76,5.76,0,0,0,5.68,5.79,5.9,5.9,0,0,0,5.69-5.79Zm.2,0a6.09,6.09,0,0,1-6,6.09,6,6,0,0,1-6-6.09,6.09,6.09,0,0,1,6-6.09A6,6,0,0,1,44.53,695.73Z"/></g><g class="cls-15"><path class="cls-29" d="M44.43,695.73a6,6,0,0,0-5.89-6,5.92,5.92,0,0,0-5.89,6,6,6,0,0,0,5.89,6,6,6,0,0,0,5.89-6Zm.3,0a6.19,6.19,0,1,1-6.19-6.3A6.24,6.24,0,0,1,44.73,695.73Z"/></g><g class="cls-15"><path class="cls-30" d="M44.63,695.73a6.19,6.19,0,0,0-6.09-6.19,6.13,6.13,0,0,0-6.09,6.19,6.19,6.19,0,0,0,6.09,6.19,6.26,6.26,0,0,0,6.09-6.19Zm.31,0a6.4,6.4,0,1,1-6.4-6.5A6.47,6.47,0,0,1,44.94,695.73Z"/></g><g class="cls-15"><path class="cls-30" d="M44.84,695.73a6.3,6.3,0,1,0-6.3,6.4,6.43,6.43,0,0,0,6.3-6.4Zm.3,0a6.6,6.6,0,1,1-6.6-6.6A6.52,6.52,0,0,1,45.14,695.73Z"/></g><g class="cls-15"><path class="cls-30" d="M45,695.73a6.48,6.48,0,0,0-6.5-6.5,6.5,6.5,0,1,0,6.5,6.5Zm.3,0a6.8,6.8,0,1,1-6.8-6.8A6.67,6.67,0,0,1,45.34,695.73Z"/></g><g class="cls-15"><path class="cls-31" d="M45.24,695.73a6.7,6.7,0,0,0-13.4,0,6.77,6.77,0,0,0,6.7,6.7,6.69,6.69,0,0,0,6.7-6.7Zm.31,0a7,7,0,1,1-7-7A6.9,6.9,0,0,1,45.55,695.73Z"/></g><g class="cls-15"><path class="cls-32" d="M45.44,695.73a6.9,6.9,0,1,0-6.9,6.9,6.84,6.84,0,0,0,6.9-6.9Zm.31,0a7.21,7.21,0,1,1-7.21-7.21A7.24,7.24,0,0,1,45.75,695.73Z"/></g><g class="cls-15"><path class="cls-33" d="M45.65,695.73a7.11,7.11,0,1,0-7.11,7.11,7.07,7.07,0,0,0,7.11-7.11Zm.3,0a7.41,7.41,0,1,1-7.41-7.41A7.32,7.32,0,0,1,46,695.73Z"/></g><g class="cls-15"><path class="cls-33" d="M45.85,695.73A7.31,7.31,0,1,0,38.54,703a7.28,7.28,0,0,0,7.31-7.31Zm.31,0a7.62,7.62,0,1,1-7.62-7.62A7.49,7.49,0,0,1,46.16,695.73Z"/></g><g class="cls-15"><path class="cls-33" d="M46.05,695.73a7.51,7.51,0,1,0-7.51,7.51,7.49,7.49,0,0,0,7.51-7.51Zm.31,0a7.82,7.82,0,1,1-7.82-7.82A7.76,7.76,0,0,1,46.36,695.73Z"/></g><g class="cls-15"><path class="cls-34" d="M46.26,695.73a7.72,7.72,0,1,0-7.72,7.72,7.72,7.72,0,0,0,7.72-7.72Zm.3,0a8,8,0,1,1-8-8A8,8,0,0,1,46.56,695.73Z"/></g><g class="cls-15"><path class="cls-34" d="M46.46,695.73a7.92,7.92,0,1,0-7.92,7.92,7.93,7.93,0,0,0,7.92-7.92Zm.3,0a8.22,8.22,0,1,1-8.22-8.22A8.18,8.18,0,0,1,46.76,695.73Z"/></g><g class="cls-15"><path class="cls-35" d="M46.66,695.73a8.12,8.12,0,1,0-8.12,8.12,8.14,8.14,0,0,0,8.12-8.12Zm.31,0a8.43,8.43,0,1,1-8.43-8.43A8.41,8.41,0,0,1,47,695.73Z"/></g><g class="cls-15"><path class="cls-36" d="M46.87,695.73a8.33,8.33,0,1,0-8.33,8.33,8.37,8.37,0,0,0,8.33-8.33Zm.3,0a8.63,8.63,0,1,1-8.63-8.63A8.63,8.63,0,0,1,47.17,695.73Z"/></g><g class="cls-15"><path class="cls-35" d="M47.07,695.73a8.53,8.53,0,1,0-8.53,8.53,8.52,8.52,0,0,0,8.53-8.53Zm.3,0a8.83,8.83,0,1,1-8.83-8.83A8.84,8.84,0,0,1,47.37,695.73Z"/></g><g class="cls-15"><path class="cls-37" d="M47.27,695.73a8.73,8.73,0,1,0-8.73,8.73,8.73,8.73,0,0,0,8.73-8.73Zm.31,0a8.94,8.94,0,1,1-8.94-9A9,9,0,0,1,47.58,695.73Z"/></g><g class="cls-15"><path class="cls-38" d="M47.48,695.73a8.84,8.84,0,1,0-8.84,8.93,9,9,0,0,0,8.84-8.93Zm.3,0a9.14,9.14,0,1,1-9.14-9.24A9.18,9.18,0,0,1,47.78,695.73Z"/></g><g class="cls-15"><path class="cls-37" d="M47.68,695.73a9,9,0,1,0-9,9.14,9.08,9.08,0,0,0,9-9.14Zm.3,0a9.34,9.34,0,1,1-9.34-9.44A9.4,9.4,0,0,1,48,695.73Z"/></g><g class="cls-15"><path class="cls-38" d="M47.88,695.73a9.24,9.24,0,1,0-9.24,9.34,9.29,9.29,0,0,0,9.24-9.34Zm.2,0a9.54,9.54,0,1,1-9.54-9.65A9.62,9.62,0,0,1,48.08,695.73Z"/></g><g class="cls-15"><path class="cls-39" d="M48,695.73a9.44,9.44,0,1,0-9.44,9.54A9.5,9.5,0,0,0,48,695.73Zm.31,0a9.75,9.75,0,1,1-9.75-9.85A9.84,9.84,0,0,1,48.29,695.73Z"/></g><g class="cls-15"><path class="cls-40" d="M48.19,695.73a9.65,9.65,0,1,0-9.65,9.75,9.74,9.74,0,0,0,9.65-9.75Zm.3,0a10,10,0,1,1-10-10.05A10,10,0,0,1,48.49,695.73Z"/></g><g class="cls-15"><path class="cls-41" d="M48.39,695.73a9.85,9.85,0,1,0-9.85,9.95,9.95,9.95,0,0,0,9.85-9.95Zm.3,0a10.15,10.15,0,1,1-10.15-10.26A10.2,10.2,0,0,1,48.69,695.73Z"/></g><g class="cls-15"><path class="cls-40" d="M48.59,695.73a10.05,10.05,0,1,0-10.05,10.15,10.1,10.1,0,0,0,10.05-10.15Zm.31,0a10.36,10.36,0,1,1-10.36-10.46A10.42,10.42,0,0,1,48.9,695.73Z"/></g><g class="cls-15"><path class="cls-42" d="M48.8,695.73a10.26,10.26,0,1,0-10.26,10.36A10.32,10.32,0,0,0,48.8,695.73Zm.3,0a10.56,10.56,0,1,1-10.56-10.66A10.64,10.64,0,0,1,49.1,695.73Z"/></g><g class="cls-15"><path class="cls-43" d="M49,695.73a10.46,10.46,0,1,0-10.46,10.56A10.53,10.53,0,0,0,49,695.73Zm.3,0a10.76,10.76,0,1,1-10.76-10.86A10.79,10.79,0,0,1,49.3,695.73Z"/></g><g class="cls-15"><path class="cls-44" d="M49.2,695.73a10.66,10.66,0,1,0-10.66,10.76A10.74,10.74,0,0,0,49.2,695.73Zm.31,0a11,11,0,1,1-11-11A10.93,10.93,0,0,1,49.51,695.73Z"/></g><g class="cls-15"><path class="cls-44" d="M49.4,695.73a10.86,10.86,0,1,0-10.86,10.86A10.87,10.87,0,0,0,49.4,695.73Zm.31,0a11.17,11.17,0,1,1-11.17-11.17A11.14,11.14,0,0,1,49.71,695.73Z"/></g><g class="cls-15"><path class="cls-45" d="M49.61,695.73A11.07,11.07,0,1,0,38.54,706.8a11.1,11.1,0,0,0,11.07-11.07Zm.3,0a11.37,11.37,0,1,1-11.37-11.37A11.35,11.35,0,0,1,49.91,695.73Z"/></g><g class="cls-15"><path class="cls-46" d="M49.81,695.73A11.27,11.27,0,1,0,38.54,707a11.24,11.24,0,0,0,11.27-11.27Zm.31,0a11.58,11.58,0,1,1-11.58-11.58A11.57,11.57,0,0,1,50.12,695.73Z"/></g><g class="cls-15"><path class="cls-47" d="M50,695.73a11.39,11.39,0,0,0-11.47-11.47A11.47,11.47,0,1,0,50,695.73Zm.31,0A11.78,11.78,0,1,1,38.54,684,11.66,11.66,0,0,1,50.32,695.73Z"/></g><g class="cls-15"><path class="cls-48" d="M50.22,695.73a11.62,11.62,0,0,0-11.68-11.68,11.68,11.68,0,1,0,11.68,11.68Zm.3,0a12,12,0,1,1-12-12A11.87,11.87,0,0,1,50.52,695.73Z"/></g><g class="cls-15"><path class="cls-49" d="M50.42,695.73a11.88,11.88,0,1,0-11.88,11.88,11.83,11.83,0,0,0,11.88-11.88Zm.3,0a12.18,12.18,0,1,1-12.18-12.18A12.21,12.21,0,0,1,50.72,695.73Z"/></g><g class="cls-15"><path class="cls-49" d="M50.62,695.73a12.08,12.08,0,1,0-12.08,12.08,12,12,0,0,0,12.08-12.08Zm.31,0a12.39,12.39,0,1,1-12.39-12.39A12.38,12.38,0,0,1,50.93,695.73Z"/></g><g class="cls-15"><path class="cls-50" d="M50.83,695.73A12.29,12.29,0,1,0,38.54,708a12.27,12.27,0,0,0,12.29-12.29Zm.3,0a12.49,12.49,0,1,1-12.49-12.59A12.5,12.5,0,0,1,51.13,695.73Z"/></g><g class="cls-15"><path class="cls-50" d="M51,695.73a12.39,12.39,0,1,0-12.39,12.49A12.47,12.47,0,0,0,51,695.73Zm.3,0a12.69,12.69,0,1,1-12.69-12.79A12.71,12.71,0,0,1,51.33,695.73Z"/></g><g class="cls-15"><path class="cls-51" d="M51.23,695.73a12.59,12.59,0,1,0-12.59,12.69,12.67,12.67,0,0,0,12.59-12.69Zm.31,0a12.9,12.9,0,1,1-12.9-13A12.94,12.94,0,0,1,51.54,695.73Z"/></g><g class="cls-15"><path class="cls-52" d="M51.44,695.73a12.8,12.8,0,1,0-12.8,12.89,12.9,12.9,0,0,0,12.8-12.89Zm.2,0a13.1,13.1,0,1,1-13.1-13.2A13.15,13.15,0,0,1,51.64,695.73Z"/></g><g class="cls-15"><path class="cls-53" d="M51.54,695.73a13,13,0,1,0-13,13.1,13,13,0,0,0,13-13.1Zm.3,0a13.3,13.3,0,1,1-13.3-13.4A13.37,13.37,0,0,1,51.84,695.73Z"/></g><g class="cls-15"><path class="cls-54" d="M51.74,695.73A13.2,13.2,0,1,0,38.54,709a13.26,13.26,0,0,0,13.2-13.3Zm.3,0a13.5,13.5,0,1,1-13.5-13.61A13.58,13.58,0,0,1,52,695.73Z"/></g><g class="cls-15"><path class="cls-55" d="M51.94,695.73a13.4,13.4,0,1,0-13.4,13.5,13.47,13.47,0,0,0,13.4-13.5Zm.31,0a13.71,13.71,0,1,1-13.71-13.81A13.74,13.74,0,0,1,52.25,695.73Z"/></g><g class="cls-15"><path class="cls-56" d="M52.15,695.73a13.61,13.61,0,1,0-13.61,13.71,13.7,13.7,0,0,0,13.61-13.71Zm.3,0a13.91,13.91,0,1,1-13.91-14A13.95,13.95,0,0,1,52.45,695.73Z"/></g><g class="cls-15"><path class="cls-57" d="M52.35,695.73a13.81,13.81,0,1,0-13.81,13.91,13.84,13.84,0,0,0,13.81-13.91Zm.3,0a14.11,14.11,0,1,1-14.11-14.21A14.16,14.16,0,0,1,52.65,695.73Z"/></g><g class="cls-15"><path class="cls-58" d="M52.55,695.73a14,14,0,1,0-14,14.11,14.05,14.05,0,0,0,14-14.11Zm.31,0a14.32,14.32,0,1,1-14.32-14.42A14.39,14.39,0,0,1,52.86,695.73Z"/></g><g class="cls-15"><path class="cls-59" d="M52.75,695.73a14.21,14.21,0,1,0-14.21,14.32,14.28,14.28,0,0,0,14.21-14.32Zm.31,0a14.52,14.52,0,1,1-14.52-14.62A14.6,14.6,0,0,1,53.06,695.73Z"/></g><g class="cls-15"><path class="cls-60" d="M53,695.73a14.42,14.42,0,1,0-14.42,14.52A14.5,14.5,0,0,0,53,695.73Zm.3,0a14.72,14.72,0,1,1-14.72-14.82A14.82,14.82,0,0,1,53.26,695.73Z"/></g><g class="cls-15"><path class="cls-61" d="M53.16,695.73a14.62,14.62,0,1,0-14.62,14.72,14.65,14.65,0,0,0,14.62-14.72Zm.31,0a14.93,14.93,0,1,1-14.93-15A15,15,0,0,1,53.47,695.73Z"/></g><g class="cls-15"><path class="cls-62" d="M53.36,695.73a14.82,14.82,0,1,0-14.82,14.92,14.87,14.87,0,0,0,14.82-14.92Zm.31,0A15.13,15.13,0,1,1,38.54,680.5,15.18,15.18,0,0,1,53.67,695.73Z"/></g><g class="cls-15"><path class="cls-63" d="M53.57,695.73a15,15,0,1,0-15,15.13,15.08,15.08,0,0,0,15-15.13Zm.3,0A15.33,15.33,0,1,1,38.54,680.4,15.25,15.25,0,0,1,53.87,695.73Z"/></g><g class="cls-15"><path class="cls-64" d="M53.77,695.73A15.23,15.23,0,1,0,38.54,711a15.21,15.21,0,0,0,15.23-15.23Zm.3,0A15.53,15.53,0,1,1,38.54,680.2,15.46,15.46,0,0,1,54.07,695.73Z"/></g><g class="cls-15"><path class="cls-64" d="M54,695.73a15.43,15.43,0,1,0-15.43,15.43A15.42,15.42,0,0,0,54,695.73Zm.31,0A15.74,15.74,0,1,1,38.54,680,15.69,15.69,0,0,1,54.28,695.73Z"/></g><g class="cls-15"><path class="cls-65" d="M54.18,695.73a15.64,15.64,0,1,0-15.64,15.64,15.65,15.65,0,0,0,15.64-15.64Zm.3,0a15.84,15.84,0,1,1-15.84-15.94A15.88,15.88,0,0,1,54.48,695.73Z"/></g><g class="cls-15"><path class="cls-66" d="M54.38,695.73a15.84,15.84,0,1,0-15.84,15.84,15.86,15.86,0,0,0,15.84-15.84Zm.3,0a16,16,0,1,1-16-16.14A16.09,16.09,0,0,1,54.68,695.73Z"/></g><g class="cls-15"><path class="cls-67" d="M54.58,695.73a15.94,15.94,0,1,0-15.94,16,16.06,16.06,0,0,0,15.94-16Zm.31,0a16.25,16.25,0,1,1-16.25-16.35A16.32,16.32,0,0,1,54.89,695.73Z"/></g><g class="cls-15"><path class="cls-68" d="M54.79,695.73A16.15,16.15,0,1,0,38.64,712a16.15,16.15,0,0,0,16.15-16.24Zm.3,0a16.45,16.45,0,1,1-16.45-16.55A16.53,16.53,0,0,1,55.09,695.73Z"/></g><g class="cls-15"><path class="cls-69" d="M55,695.73a16.35,16.35,0,1,0-16.45,16.45A16.36,16.36,0,0,0,55,695.73Zm.2,0A16.65,16.65,0,1,1,38.54,679,16.74,16.74,0,0,1,55.19,695.73Z"/></g><g class="cls-15"><path class="cls-70" d="M55.09,695.73a16.55,16.55,0,1,0-16.55,16.65,16.57,16.57,0,0,0,16.55-16.65Zm.3,0a16.85,16.85,0,1,1-16.85-17A16.9,16.9,0,0,1,55.39,695.73Z"/></g><g class="cls-15"><path class="cls-71" d="M55.29,695.73a16.75,16.75,0,1,0-16.75,16.85,16.79,16.79,0,0,0,16.75-16.85Zm.31,0a17.06,17.06,0,1,1-17.06-17.16A17.12,17.12,0,0,1,55.6,695.73Z"/></g><g class="cls-15"><path class="cls-72" d="M55.5,695.73a17,17,0,1,0-17,17.06,17,17,0,0,0,17-17.06Zm.3,0a17.26,17.26,0,1,1-17.26-17.36A17.34,17.34,0,0,1,55.8,695.73Z"/></g><g class="cls-15"><path class="cls-73" d="M55.7,695.73A17.16,17.16,0,1,0,38.54,713,17.23,17.23,0,0,0,55.7,695.73Zm.3,0a17.46,17.46,0,1,1-17.46-17.57A17.47,17.47,0,0,1,56,695.73Z"/></g><g class="cls-15"><path class="cls-74" d="M55.9,695.73a17.36,17.36,0,1,0-17.36,17.46A17.44,17.44,0,0,0,55.9,695.73Zm.31,0A17.67,17.67,0,1,1,38.54,678,17.7,17.7,0,0,1,56.21,695.73Z"/></g><g class="cls-15"><path class="cls-75" d="M56.11,695.73A17.57,17.57,0,1,0,38.54,713.4a17.6,17.6,0,0,0,17.57-17.67Zm.3,0a17.87,17.87,0,1,1-17.87-18A17.92,17.92,0,0,1,56.41,695.73Z"/></g><g class="cls-15"><path class="cls-76" d="M56.31,695.73A17.77,17.77,0,1,0,38.54,713.6a17.81,17.81,0,0,0,17.77-17.87Zm.3,0a18.07,18.07,0,1,1-18.07-18.17A18.13,18.13,0,0,1,56.61,695.73Z"/></g><g class="cls-15"><path class="cls-77" d="M56.51,695.73a18,18,0,1,0-18,18.07,18,18,0,0,0,18-18.07Zm.31,0a18.28,18.28,0,1,1-18.28-18.38A18.36,18.36,0,0,1,56.82,695.73Z"/></g><g class="cls-15"><path class="cls-78" d="M56.71,695.73A18.17,18.17,0,1,0,38.54,714a18.24,18.24,0,0,0,18.17-18.28Zm.31,0a18.48,18.48,0,1,1-18.48-18.58A18.5,18.5,0,0,1,57,695.73Z"/></g><g class="cls-15"><path class="cls-79" d="M56.92,695.73a18.38,18.38,0,1,0-18.38,18.48,18.47,18.47,0,0,0,18.38-18.48Zm.3,0A18.68,18.68,0,1,1,38.54,677,18.71,18.71,0,0,1,57.22,695.73Z"/></g><g class="cls-15"><path class="cls-80" d="M57.12,695.73a18.58,18.58,0,1,0-18.58,18.68,18.67,18.67,0,0,0,18.58-18.68Zm.31,0a18.89,18.89,0,1,1-18.89-19A18.94,18.94,0,0,1,57.43,695.73Z"/></g><g class="cls-15"><path class="cls-81" d="M57.32,695.73a18.78,18.78,0,1,0-18.78,18.88,18.83,18.83,0,0,0,18.78-18.88Zm.31,0a19.09,19.09,0,1,1-19.09-19.19A19.15,19.15,0,0,1,57.63,695.73Z"/></g><g class="cls-15"><path class="cls-82" d="M57.53,695.73a19,19,0,1,0-19,19.09,19,19,0,0,0,19-19.09Zm.3,0a19.29,19.29,0,1,1-19.29-19.39A19.37,19.37,0,0,1,57.83,695.73Z"/></g><g class="cls-15"><path class="cls-83" d="M57.73,695.73A19.19,19.19,0,1,0,38.54,715a19.39,19.39,0,0,0,19.19-19.29Zm.3,0a19.39,19.39,0,1,1-19.39-19.49A19.47,19.47,0,0,1,58,695.73Z"/></g><g class="cls-15"><path class="cls-84" d="M57.93,695.73a19.39,19.39,0,1,0-19.39,19.49,19.41,19.41,0,0,0,19.39-19.49Zm.31,0A19.6,19.6,0,1,1,38.64,676,19.7,19.7,0,0,1,58.24,695.73Z"/></g><g class="cls-15"><path class="cls-85" d="M58.14,695.73a19.5,19.5,0,1,0-19.5,19.6,19.53,19.53,0,0,0,19.5-19.6Zm.3,0a19.8,19.8,0,1,1-19.8-19.9A19.84,19.84,0,0,1,58.44,695.73Z"/></g><g class="cls-15"><path class="cls-86" d="M58.34,695.73a19.7,19.7,0,1,0-19.7,19.8,19.73,19.73,0,0,0,19.7-19.8Zm.2,0a20,20,0,1,1-20-20.1A20,20,0,0,1,58.54,695.73Z"/></g><g class="cls-15"><path class="cls-87" d="M58.54,695.73a19.9,19.9,0,1,0-19.9,20,19.95,19.95,0,0,0,19.9-20Zm.21,0a20.21,20.21,0,1,1-20.21-20.31A20.22,20.22,0,0,1,58.75,695.73Z"/></g><g class="cls-15"><path class="cls-87" d="M58.64,695.73a20.1,20.1,0,1,0-20.1,20.2,20.17,20.17,0,0,0,20.1-20.2Zm.31,0a20.41,20.41,0,1,1-20.41-20.51A20.43,20.43,0,0,1,59,695.73Z"/></g><g class="cls-15"><path class="cls-88" d="M58.85,695.73a20.31,20.31,0,1,0-20.31,20.41,20.39,20.39,0,0,0,20.31-20.41Zm.3,0A20.61,20.61,0,1,1,38.54,675,20.65,20.65,0,0,1,59.15,695.73Z"/></g><g class="cls-15"><path class="cls-89" d="M59.05,695.73a20.51,20.51,0,1,0-20.51,20.61,20.61,20.61,0,0,0,20.51-20.61Zm.3,0a20.81,20.81,0,1,1-20.81-20.92A20.87,20.87,0,0,1,59.35,695.73Z"/></g><g class="cls-15"><path class="cls-90" d="M59.25,695.73a20.71,20.71,0,1,0-20.71,20.81,20.75,20.75,0,0,0,20.71-20.81Zm.31,0a21,21,0,1,1-21-21.12A21.08,21.08,0,0,1,59.56,695.73Z"/></g><g class="cls-15"><path class="cls-91" d="M59.46,695.73a20.92,20.92,0,1,0-20.92,21,21,21,0,0,0,20.92-21Zm.3,0a21.22,21.22,0,1,1-21.22-21.32A21.29,21.29,0,0,1,59.76,695.73Z"/></g><g class="cls-15"><path class="cls-92" d="M59.66,695.73A21.12,21.12,0,1,0,38.54,717a21.19,21.19,0,0,0,21.12-21.22Zm.3,0A21.42,21.42,0,1,1,38.54,674.2,21.44,21.44,0,0,1,60,695.73Z"/></g><g class="cls-15"><path class="cls-93" d="M59.86,695.73a21.32,21.32,0,1,0-21.32,21.42,21.33,21.33,0,0,0,21.32-21.42Zm.31,0A21.63,21.63,0,1,1,38.54,674,21.67,21.67,0,0,1,60.17,695.73Z"/></g><g class="cls-15"><path class="cls-93" d="M60.07,695.73a21.53,21.53,0,1,0-21.53,21.63,21.57,21.57,0,0,0,21.53-21.63Zm.3,0A21.83,21.83,0,1,1,38.54,673.8,21.89,21.89,0,0,1,60.37,695.73Z"/></g><g class="cls-15"><path class="cls-94" d="M60.27,695.73a21.73,21.73,0,1,0-21.73,21.83,21.78,21.78,0,0,0,21.73-21.83Zm.3,0a22,22,0,1,1-22-22.13A22.1,22.1,0,0,1,60.57,695.73Z"/></g><g class="cls-15"><path class="cls-95" d="M60.47,695.73a21.93,21.93,0,1,0-21.93,22,22,22,0,0,0,21.93-22Zm.31,0a22.24,22.24,0,1,1-22.24-22.34A22.32,22.32,0,0,1,60.78,695.73Z"/></g><g class="cls-15"><path class="cls-96" d="M60.67,695.73A22.13,22.13,0,1,0,38.54,718a22.14,22.14,0,0,0,22.13-22.24Zm.31,0a22.44,22.44,0,1,1-22.44-22.54A22.47,22.47,0,0,1,61,695.73Z"/></g><g class="cls-15"><path class="cls-97" d="M60.88,695.73a22.34,22.34,0,1,0-22.34,22.44,22.36,22.36,0,0,0,22.34-22.44Zm.3,0A22.64,22.64,0,1,1,38.54,673,22.68,22.68,0,0,1,61.18,695.73Z"/></g><g class="cls-15"><path class="cls-98" d="M61.08,695.73a22.54,22.54,0,1,0-22.54,22.64,22.57,22.57,0,0,0,22.54-22.64Zm.31,0a22.85,22.85,0,1,1-22.85-23A22.91,22.91,0,0,1,61.39,695.73Z"/></g><g class="cls-15"><path class="cls-99" d="M61.28,695.73a22.74,22.74,0,1,0-22.74,22.84,22.79,22.79,0,0,0,22.74-22.84Zm.31,0a22.95,22.95,0,1,1-23-23.15A23,23,0,0,1,61.59,695.73Z"/></g><g class="cls-15"><path class="cls-100" d="M61.49,695.73a23,23,0,1,0-23,23,23,23,0,0,0,23-23Zm.3,0a23.15,23.15,0,1,1-23.15-23.35A23.25,23.25,0,0,1,61.79,695.73Z"/></g><g class="cls-15"><path class="cls-101" d="M61.69,695.73a23.05,23.05,0,1,0-23,23.25,23.21,23.21,0,0,0,23-23.25Zm.3,0a23.35,23.35,0,1,1-23.35-23.56A23.46,23.46,0,0,1,62,695.73Z"/></g><g class="cls-15"><path class="cls-101" d="M61.89,695.73a23.25,23.25,0,1,0-23.25,23.45,23.41,23.41,0,0,0,23.25-23.45Zm.21,0A23.56,23.56,0,1,1,38.54,672,23.68,23.68,0,0,1,62.1,695.73Z"/></g><g class="cls-15"><path class="cls-102" d="M62.1,695.73a23.46,23.46,0,1,0-23.46,23.66A23.64,23.64,0,0,0,62.1,695.73Zm.2,0a23.76,23.76,0,1,1-23.76-23.86A23.81,23.81,0,0,1,62.3,695.73Z"/></g><g class="cls-15"><path class="cls-102" d="M62.2,695.73a23.66,23.66,0,1,0-23.66,23.86A23.73,23.73,0,0,0,62.2,695.73Zm.3,0a24,24,0,1,1-24-24.06A24,24,0,0,1,62.5,695.73Z"/></g><g class="cls-15"><path class="cls-103" d="M62.4,695.73a23.86,23.86,0,1,0-23.86,24,23.85,23.85,0,0,0,23.86-24Zm.31,0a24.17,24.17,0,1,1-24.17-24.27A24.25,24.25,0,0,1,62.71,695.73Z"/></g><g class="cls-15"><path class="cls-104" d="M62.6,695.73a24.06,24.06,0,1,0-24.06,24.16A24.07,24.07,0,0,0,62.6,695.73Zm.31,0a24.37,24.37,0,1,1-24.37-24.47A24.4,24.4,0,0,1,62.91,695.73Z"/></g><g class="cls-15"><path class="cls-105" d="M62.81,695.73A24.27,24.27,0,1,0,38.54,720.1a24.3,24.3,0,0,0,24.27-24.37Zm.3,0a24.57,24.57,0,1,1-24.57-24.67A24.61,24.61,0,0,1,63.11,695.73Z"/></g><g class="cls-15"><path class="cls-106" d="M63,695.73A24.47,24.47,0,1,0,38.54,720.3,24.5,24.5,0,0,0,63,695.73Zm.3,0a24.77,24.77,0,1,1-24.77-24.88A24.83,24.83,0,0,1,63.31,695.73Z"/></g><g class="cls-15"><path class="cls-106" d="M63.21,695.73A24.67,24.67,0,1,0,38.54,720.5a24.71,24.71,0,0,0,24.67-24.77Zm.31,0a25,25,0,1,1-25-25.08A25,25,0,0,1,63.52,695.73Z"/></g><g class="cls-15"><path class="cls-107" d="M63.42,695.73a24.88,24.88,0,1,0-24.88,25,24.94,24.94,0,0,0,24.88-25Zm.3,0a25.18,25.18,0,1,1-25.18-25.28A25.2,25.2,0,0,1,63.72,695.73Z"/></g><g class="cls-15"><path class="cls-108" d="M63.62,695.73a25.08,25.08,0,1,0-25.08,25.18,25.15,25.15,0,0,0,25.08-25.18Zm.3,0a25.38,25.38,0,1,1-25.38-25.49A25.41,25.41,0,0,1,63.92,695.73Z"/></g><g class="cls-15"><path class="cls-109" d="M63.82,695.73a25.28,25.28,0,1,0-25.28,25.38,25.3,25.3,0,0,0,25.28-25.38Zm.31,0A25.59,25.59,0,1,1,38.54,670,25.64,25.64,0,0,1,64.13,695.73Z"/></g><g class="cls-15"><path class="cls-109" d="M64,695.73a25.49,25.49,0,1,0-25.49,25.59A25.53,25.53,0,0,0,64,695.73Zm.3,0a25.79,25.79,0,1,1-25.79-25.89A25.85,25.85,0,0,1,64.33,695.73Z"/></g><g class="cls-15"><path class="cls-110" d="M64.23,695.73a25.69,25.69,0,1,0-25.69,25.79,25.75,25.75,0,0,0,25.69-25.79Zm.3,0a26,26,0,1,1-26-26.09A26,26,0,0,1,64.53,695.73Z"/></g><g class="cls-15"><path class="cls-111" d="M64.43,695.73a25.89,25.89,0,1,0-25.89,26,25.95,25.95,0,0,0,25.89-26Zm.31,0a26.2,26.2,0,1,1-26.2-26.3A26.22,26.22,0,0,1,64.74,695.73Z"/></g><g class="cls-15"><path class="cls-111" d="M64.63,695.73a26.09,26.09,0,1,0-26.09,26.19,26.17,26.17,0,0,0,26.09-26.19Zm.31,0a26.4,26.4,0,1,1-26.4-26.5A26.43,26.43,0,0,1,64.94,695.73Z"/></g><g class="cls-15"><path class="cls-112" d="M64.84,695.73a26.3,26.3,0,1,0-26.3,26.4,26.33,26.33,0,0,0,26.3-26.4Zm.3,0A26.5,26.5,0,1,1,38.64,669,26.63,26.63,0,0,1,65.14,695.73Z"/></g><g class="cls-15"><path class="cls-113" d="M65,695.73a26.5,26.5,0,1,0-26.5,26.6A26.54,26.54,0,0,0,65,695.73Zm.31,0a26.71,26.71,0,1,1-26.71-26.91A26.86,26.86,0,0,1,65.35,695.73Z"/></g><g class="cls-15"><path class="cls-114" d="M65.24,695.73a26.6,26.6,0,1,0-26.6,26.8,26.74,26.74,0,0,0,26.6-26.8Zm.31,0a26.91,26.91,0,1,1-26.91-27.11A27.06,27.06,0,0,1,65.55,695.73Z"/></g><g class="cls-15"><path class="cls-115" d="M65.45,695.73a26.81,26.81,0,1,0-26.81,27,26.89,26.89,0,0,0,26.81-27Zm.2,0a27.11,27.11,0,1,1-27.11-27.31A27.27,27.27,0,0,1,65.65,695.73Z"/></g><g class="cls-15"><path class="cls-116" d="M65.65,695.73a27,27,0,1,0-27,27.21,27.1,27.1,0,0,0,27-27.21Zm.2,0a27.31,27.31,0,1,1-27.31-27.52A27.49,27.49,0,0,1,65.85,695.73Z"/></g><g class="cls-15"><path class="cls-117" d="M65.75,695.73a27.21,27.21,0,1,0-27.21,27.41,27.31,27.31,0,0,0,27.21-27.41Zm.31,0A27.52,27.52,0,1,1,38.54,668,27.59,27.59,0,0,1,66.06,695.73Z"/></g><g class="cls-15"><path class="cls-117" d="M66,695.73a27.41,27.41,0,1,0-27.41,27.62A27.54,27.54,0,0,0,66,695.73Zm.31,0a27.72,27.72,0,1,1-27.72-27.92A27.8,27.8,0,0,1,66.26,695.73Z"/></g><g class="cls-15"><path class="cls-118" d="M66.16,695.73a27.62,27.62,0,1,0-27.62,27.82,27.76,27.76,0,0,0,27.62-27.82Zm.3,0a27.92,27.92,0,1,1-27.92-28.12A28,28,0,0,1,66.46,695.73Z"/></g><g class="cls-15"><path class="cls-119" d="M66.36,695.73a27.82,27.82,0,1,0-27.82,28,28,28,0,0,0,27.82-28Zm.3,0A28.12,28.12,0,1,1,38.54,667.5,28.14,28.14,0,0,1,66.66,695.73Z"/></g><g class="cls-15"><path class="cls-120" d="M66.56,695.73a28,28,0,1,0-28,28.23,28.19,28.19,0,0,0,28-28.23Zm.31,0A28.33,28.33,0,1,1,38.54,667.3,28.36,28.36,0,0,1,66.87,695.73Z"/></g><g class="cls-15"><path class="cls-121" d="M66.77,695.73a28.23,28.23,0,1,0-28.23,28.33,28.25,28.25,0,0,0,28.23-28.33Zm.3,0A28.53,28.53,0,1,1,38.54,667.1,28.57,28.57,0,0,1,67.07,695.73Z"/></g><g class="cls-15"><path class="cls-122" d="M67,695.73a28.43,28.43,0,1,0-28.43,28.53A28.47,28.47,0,0,0,67,695.73Zm.3,0a28.73,28.73,0,1,1-28.73-28.84A28.79,28.79,0,0,1,67.27,695.73Z"/></g><g class="cls-15"><path class="cls-123" d="M67.17,695.73a28.63,28.63,0,1,0-28.63,28.73,28.62,28.62,0,0,0,28.63-28.73Zm.31,0a28.94,28.94,0,1,1-28.94-29A29,29,0,0,1,67.48,695.73Z"/></g><g class="cls-15"><path class="cls-123" d="M67.38,695.73a28.84,28.84,0,1,0-28.84,28.94,28.85,28.85,0,0,0,28.84-28.94Zm.3,0a29.14,29.14,0,1,1-29.14-29.24A29.17,29.17,0,0,1,67.68,695.73Z"/></g><g class="cls-15"><path class="cls-124" d="M67.58,695.73a29,29,0,1,0-29,29.14,29.06,29.06,0,0,0,29-29.14Zm.3,0a29.34,29.34,0,1,1-29.34-29.44A29.37,29.37,0,0,1,67.88,695.73Z"/></g><g class="cls-15"><path class="cls-125" d="M67.78,695.73a29.24,29.24,0,1,0-29.24,29.34,29.27,29.27,0,0,0,29.24-29.34Zm.31,0a29.55,29.55,0,1,1-29.55-29.65A29.6,29.6,0,0,1,68.09,695.73Z"/></g><g class="cls-15"><path class="cls-126" d="M68,695.73a29.44,29.44,0,1,0-29.44,29.55A29.48,29.48,0,0,0,68,695.73Zm.31,0a29.7,29.7,0,1,1-29.65-29.85A29.81,29.81,0,0,1,68.29,695.73Z"/></g><g class="cls-15"><path class="cls-127" d="M68.19,695.73a29.65,29.65,0,1,0-29.65,29.75,29.7,29.7,0,0,0,29.65-29.75Zm.3,0a30,30,0,1,1-29.95-30.05A30,30,0,0,1,68.49,695.73Z"/></g><g class="cls-15"><path class="cls-128" d="M68.39,695.73a29.85,29.85,0,1,0-29.85,29.95,29.85,29.85,0,0,0,29.85-29.95Zm.31,0a30.06,30.06,0,1,1-30.06-30.26A30.17,30.17,0,0,1,68.7,695.73Z"/></g><g class="cls-15"><path class="cls-129" d="M68.59,695.73a30.05,30.05,0,1,0-30.05,30.15,30.08,30.08,0,0,0,30.05-30.15Zm.31,0a30.26,30.26,0,1,1-30.26-30.46A30.38,30.38,0,0,1,68.9,695.73Z"/></g><g class="cls-15"><path class="cls-130" d="M68.8,695.73a30.16,30.16,0,1,0-30.16,30.36A30.28,30.28,0,0,0,68.8,695.73Zm.3,0a30.46,30.46,0,1,1-30.46-30.66A30.52,30.52,0,0,1,69.1,695.73Z"/></g><g class="cls-15"><path class="cls-131" d="M69,695.73a30.36,30.36,0,1,0-30.36,30.56A30.49,30.49,0,0,0,69,695.73Zm.2,0a30.66,30.66,0,1,1-30.66-30.87A30.74,30.74,0,0,1,69.2,695.73Z"/></g><g class="cls-15"><path class="cls-131" d="M69.2,695.73a30.61,30.61,0,1,0-30.66,30.76A30.69,30.69,0,0,0,69.2,695.73Zm.21,0a30.87,30.87,0,1,1-30.87-31.07A31,31,0,0,1,69.41,695.73Z"/></g><g class="cls-15"><path class="cls-132" d="M69.3,695.73a30.76,30.76,0,1,0-30.76,31,30.91,30.91,0,0,0,30.76-31Zm.31,0a31.07,31.07,0,1,1-31.07-31.27A31.18,31.18,0,0,1,69.61,695.73Z"/></g><g class="cls-15"><path class="cls-133" d="M69.51,695.73a31,31,0,1,0-31,31.17,31.13,31.13,0,0,0,31-31.17Zm.3,0a31.27,31.27,0,1,1-31.27-31.48A31.39,31.39,0,0,1,69.81,695.73Z"/></g><g class="cls-15"><path class="cls-134" d="M69.71,695.73A31.17,31.17,0,1,0,38.54,727.1a31.28,31.28,0,0,0,31.17-31.37Zm.31,0a31.48,31.48,0,1,1-31.48-31.68A31.62,31.62,0,0,1,70,695.73Z"/></g><g class="cls-15"><path class="cls-135" d="M69.91,695.73a31.37,31.37,0,1,0-31.37,31.58,31.44,31.44,0,0,0,31.37-31.58Zm.31,0a31.68,31.68,0,1,1-31.68-31.88A31.83,31.83,0,0,1,70.22,695.73Z"/></g><g class="cls-15"><path class="cls-136" d="M70.12,695.73a31.58,31.58,0,1,0-31.58,31.68,31.66,31.66,0,0,0,31.58-31.68Zm.3,0a31.88,31.88,0,1,1-31.88-32.08A32,32,0,0,1,70.42,695.73Z"/></g><g class="cls-15"><path class="cls-137" d="M70.32,695.73a31.78,31.78,0,1,0-31.78,32,31.86,31.86,0,0,0,31.78-32Zm.3,0a32.08,32.08,0,1,1-32.08-32.29A32.19,32.19,0,0,1,70.62,695.73Z"/></g><g class="cls-15"><path class="cls-138" d="M70.52,695.73a32,32,0,1,0-32,32.19,32.09,32.09,0,0,0,32-32.19Zm.31,0a32.29,32.29,0,1,1-32.29-32.49A32.41,32.41,0,0,1,70.83,695.73Z"/></g><g class="cls-15"><path class="cls-139" d="M70.73,695.73a32.19,32.19,0,1,0-32.19,32.39,32.31,32.31,0,0,0,32.19-32.39Zm.3,0a32.49,32.49,0,1,1-32.49-32.59A32.48,32.48,0,0,1,71,695.73Z"/></g><g class="cls-15"><path class="cls-140" d="M70.93,695.73a32.39,32.39,0,1,0-32.39,32.59,32.52,32.52,0,0,0,32.39-32.59Zm.3,0a32.69,32.69,0,1,1-32.69-32.8A32.69,32.69,0,0,1,71.23,695.73Z"/></g><g class="cls-15"><path class="cls-141" d="M71.13,695.73a32.59,32.59,0,1,0-32.59,32.69,32.65,32.65,0,0,0,32.59-32.69Zm.31,0a32.9,32.9,0,1,1-32.9-33A32.92,32.92,0,0,1,71.44,695.73Z"/></g><g class="cls-15"><path class="cls-142" d="M71.34,695.73a32.8,32.8,0,1,0-32.8,32.9,32.82,32.82,0,0,0,32.8-32.9Zm.3,0a33.1,33.1,0,1,1-33.1-33.3A33.12,33.12,0,0,1,71.64,695.73Z"/></g><g class="cls-15"><path class="cls-142" d="M71.54,695.73a33,33,0,1,0-33,33.1,33,33,0,0,0,33-33.1Zm.3,0a33.3,33.3,0,1,1-33.3-33.4A33.34,33.34,0,0,1,71.84,695.73Z"/></g><g class="cls-15"><path class="cls-143" d="M71.74,695.73A33.2,33.2,0,1,0,38.54,729a33.23,33.23,0,0,0,33.2-33.3Zm.31,0a33.51,33.51,0,1,1-33.51-33.61A33.57,33.57,0,0,1,72.05,695.73Z"/></g><g class="cls-15"><path class="cls-144" d="M71.94,695.73a33.4,33.4,0,1,0-33.4,33.51,33.45,33.45,0,0,0,33.4-33.51Zm.31,0a33.61,33.61,0,1,1-33.61-33.81A33.69,33.69,0,0,1,72.25,695.73Z"/></g><g class="cls-15"><path class="cls-145" d="M72.15,695.73a33.51,33.51,0,1,0-33.61,33.71,33.65,33.65,0,0,0,33.61-33.71Zm.3,0a33.81,33.81,0,1,1-33.81-34A33.91,33.91,0,0,1,72.45,695.73Z"/></g><g class="cls-15"><path class="cls-146" d="M72.35,695.73a33.76,33.76,0,1,0-33.81,33.91,33.8,33.8,0,0,0,33.81-33.91Zm.31,0a34,34,0,1,1-34-34.22A34.13,34.13,0,0,1,72.66,695.73Z"/></g><g class="cls-15"><path class="cls-147" d="M72.55,695.73a33.91,33.91,0,1,0-33.91,34.11,34,34,0,0,0,33.91-34.11Zm.21,0a34.22,34.22,0,1,1-34.22-34.42A34.34,34.34,0,0,1,72.76,695.73Z"/></g><g class="cls-15"><path class="cls-148" d="M72.76,695.73a34.12,34.12,0,1,0-34.12,34.32,34.23,34.23,0,0,0,34.12-34.32Zm.2,0a34.42,34.42,0,1,1-34.42-34.62A34.55,34.55,0,0,1,73,695.73Z"/></g><g class="cls-15"><path class="cls-149" d="M72.86,695.73a34.32,34.32,0,1,0-34.32,34.52,34.38,34.38,0,0,0,34.32-34.52Zm.3,0A34.62,34.62,0,1,1,38.54,660.9,34.77,34.77,0,0,1,73.16,695.73Z"/></g><g class="cls-15"><path class="cls-150" d="M73.06,695.73a34.52,34.52,0,1,0-34.52,34.72,34.59,34.59,0,0,0,34.52-34.72Zm.31,0a34.83,34.83,0,1,1-34.83-35A35,35,0,0,1,73.37,695.73Z"/></g><g class="cls-15"><path class="cls-151" d="M73.26,695.73a34.72,34.72,0,1,0-34.72,34.93,34.82,34.82,0,0,0,34.72-34.93Zm.31,0a35,35,0,1,1-35-35.23A35.08,35.08,0,0,1,73.57,695.73Z"/></g><g class="cls-15"><path class="cls-152" d="M73.47,695.73a34.93,34.93,0,1,0-34.93,35.13,35,35,0,0,0,34.93-35.13Zm.3,0a35.23,35.23,0,1,1-35.23-35.44A35.29,35.29,0,0,1,73.77,695.73Z"/></g><g class="cls-15"><path class="cls-153" d="M73.67,695.73a35.13,35.13,0,1,0-35.13,35.33,35.25,35.25,0,0,0,35.13-35.33Zm.31,0a35.44,35.44,0,1,1-35.44-35.64A35.51,35.51,0,0,1,74,695.73Z"/></g><g class="cls-15"><path class="cls-154" d="M73.87,695.73a35.33,35.33,0,1,0-35.33,35.54,35.47,35.47,0,0,0,35.33-35.54Zm.31,0a35.64,35.64,0,1,1-35.64-35.84A35.73,35.73,0,0,1,74.18,695.73Z"/></g><g class="cls-15"><path class="cls-153" d="M74.08,695.73a35.54,35.54,0,1,0-35.54,35.74,35.68,35.68,0,0,0,35.54-35.74Zm.3,0a35.84,35.84,0,1,1-35.84-36A35.94,35.94,0,0,1,74.38,695.73Z"/></g><g class="cls-15"><path class="cls-155" d="M74.28,695.73a35.74,35.74,0,1,0-35.74,35.94,35.9,35.9,0,0,0,35.74-35.94Zm.3,0a36,36,0,1,1-36-36.25A36.16,36.16,0,0,1,74.58,695.73Z"/></g><g class="cls-15"><path class="cls-156" d="M74.48,695.73a35.94,35.94,0,1,0-35.94,36.15,36.05,36.05,0,0,0,35.94-36.15Zm.31,0a36.25,36.25,0,1,1-36.25-36.45A36.38,36.38,0,0,1,74.79,695.73Z"/></g><g class="cls-15"><path class="cls-157" d="M74.69,695.73a36.15,36.15,0,1,0-36.15,36.35,36.21,36.21,0,0,0,36.15-36.35Zm.3,0a36.45,36.45,0,1,1-36.45-36.65A36.6,36.6,0,0,1,75,695.73Z"/></g><g class="cls-15"><path class="cls-157" d="M74.89,695.73a36.35,36.35,0,1,0-36.35,36.55,36.42,36.42,0,0,0,36.35-36.55Zm.3,0a36.65,36.65,0,1,1-36.65-36.86A36.74,36.74,0,0,1,75.19,695.73Z"/></g><g class="cls-15"><path class="cls-158" d="M75.09,695.73a36.55,36.55,0,1,0-36.55,36.75,36.63,36.63,0,0,0,36.55-36.75Zm.31,0a36.86,36.86,0,1,1-36.86-37A36.88,36.88,0,0,1,75.4,695.73Z"/></g><g class="cls-15"><path class="cls-159" d="M75.3,695.73a36.76,36.76,0,1,0-36.76,36.86A36.77,36.77,0,0,0,75.3,695.73Zm.3,0a37.06,37.06,0,1,1-37.06-37.16A37.09,37.09,0,0,1,75.6,695.73Z"/></g><g class="cls-15"><path class="cls-160" d="M75.5,695.73a37,37,0,1,0-37,37.06,37,37,0,0,0,37-37.06Zm.3,0a37.16,37.16,0,1,1-37.16-37.36A37.28,37.28,0,0,1,75.8,695.73Z"/></g><g class="cls-15"><path class="cls-161" d="M75.7,695.73A37.06,37.06,0,1,0,38.64,733,37.18,37.18,0,0,0,75.7,695.73Zm.31,0a37.37,37.37,0,1,1-37.37-37.57A37.45,37.45,0,0,1,76,695.73Z"/></g><g class="cls-15"><path class="cls-162" d="M75.9,695.73A37.26,37.26,0,1,0,38.64,733.2,37.4,37.4,0,0,0,75.9,695.73Zm.31,0A37.57,37.57,0,1,1,38.64,658,37.66,37.66,0,0,1,76.21,695.73Z"/></g><g class="cls-15"><path class="cls-163" d="M76.11,695.73A37.47,37.47,0,1,0,38.64,733.4a37.56,37.56,0,0,0,37.47-37.67Zm.2,0a37.77,37.77,0,1,1-37.77-38A37.87,37.87,0,0,1,76.31,695.73Z"/></g><g class="cls-15"><path class="cls-164" d="M76.21,695.73A37.67,37.67,0,1,0,38.54,733.6a37.76,37.76,0,0,0,37.67-37.87Zm.3,0a38,38,0,1,1-38-38.18A38.09,38.09,0,0,1,76.51,695.73Z"/></g><g class="cls-15"><path class="cls-165" d="M76.41,695.73A37.87,37.87,0,1,0,38.54,733.8a38,38,0,0,0,37.87-38.07Zm.31,0a38.18,38.18,0,1,1-38.18-38.38A38.24,38.24,0,0,1,76.72,695.73Z"/></g><g class="cls-15"><path class="cls-165" d="M76.62,695.73A38.08,38.08,0,1,0,38.54,734a38.2,38.2,0,0,0,38.08-38.28Zm.3,0a38.38,38.38,0,1,1-38.38-38.58A38.46,38.46,0,0,1,76.92,695.73Z"/></g><g class="cls-15"><path class="cls-166" d="M76.82,695.73a38.28,38.28,0,1,0-38.28,38.48,38.41,38.41,0,0,0,38.28-38.48Zm.3,0a38.58,38.58,0,1,1-38.58-38.79A38.68,38.68,0,0,1,77.12,695.73Z"/></g><g class="cls-15"><path class="cls-167" d="M77,695.73a38.48,38.48,0,1,0-38.48,38.68A38.63,38.63,0,0,0,77,695.73Zm.31,0a38.79,38.79,0,1,1-38.79-39A38.9,38.9,0,0,1,77.33,695.73Z"/></g><g class="cls-15"><path class="cls-168" d="M77.22,695.73a38.68,38.68,0,1,0-38.68,38.89,38.78,38.78,0,0,0,38.68-38.89Zm.31,0a39,39,0,1,1-39-39.19A39.1,39.1,0,0,1,77.53,695.73Z"/></g><g class="cls-15"><path class="cls-169" d="M77.43,695.73a38.89,38.89,0,1,0-38.89,39.09,38.93,38.93,0,0,0,38.89-39.09Zm.3,0a39.19,39.19,0,1,1-39.19-39.4A39.32,39.32,0,0,1,77.73,695.73Z"/></g><g class="cls-15"><path class="cls-169" d="M77.63,695.73A39.09,39.09,0,1,0,38.54,735a39.14,39.14,0,0,0,39.09-39.29Zm.31,0a39.4,39.4,0,1,1-39.4-39.6A39.55,39.55,0,0,1,77.94,695.73Z"/></g><g class="cls-15"><path class="cls-170" d="M77.83,695.73a39.29,39.29,0,1,0-39.29,39.5,39.37,39.37,0,0,0,39.29-39.5Zm.31,0a39.6,39.6,0,1,1-39.6-39.8A39.76,39.76,0,0,1,78.14,695.73Z"/></g><g class="cls-15"><path class="cls-171" d="M78,695.73a39.5,39.5,0,1,0-39.5,39.7A39.59,39.59,0,0,0,78,695.73Zm.3,0a39.8,39.8,0,1,1-39.8-40A39.91,39.91,0,0,1,78.34,695.73Z"/></g><g class="cls-15"><path class="cls-172" d="M78.24,695.73a39.7,39.7,0,1,0-39.7,39.9,39.8,39.8,0,0,0,39.7-39.9Zm.3,0a40,40,0,1,1-40-40.21A40.06,40.06,0,0,1,78.54,695.73Z"/></g><g class="cls-15"><path class="cls-173" d="M78.44,695.73a39.9,39.9,0,1,0-39.9,40.1,40,40,0,0,0,39.9-40.1Zm.31,0a40.21,40.21,0,1,1-40.21-40.41A40.28,40.28,0,0,1,78.75,695.73Z"/></g><g class="cls-15"><path class="cls-173" d="M78.65,695.73A40.11,40.11,0,1,0,38.54,736a40.24,40.24,0,0,0,40.11-40.31Zm.3,0a40.41,40.41,0,1,1-40.41-40.61A40.49,40.49,0,0,1,79,695.73Z"/></g><g class="cls-15"><path class="cls-174" d="M78.85,695.73a40.31,40.31,0,1,0-40.31,40.51,40.45,40.45,0,0,0,40.31-40.51Zm.3,0a40.61,40.61,0,1,1-40.61-40.82A40.71,40.71,0,0,1,79.15,695.73Z"/></g><g class="cls-15"><path class="cls-175" d="M79.05,695.73a40.51,40.51,0,1,0-40.51,40.71,40.6,40.6,0,0,0,40.51-40.71Zm.31,0a40.72,40.72,0,1,1-40.72-41A40.91,40.91,0,0,1,79.36,695.73Z"/></g><g class="cls-15"><path class="cls-175" d="M79.25,695.73a40.61,40.61,0,1,0-40.61,40.92,40.8,40.8,0,0,0,40.61-40.92Zm.31,0a40.92,40.92,0,1,1-81.84,0,41.13,41.13,0,0,1,40.92-41.22A41.13,41.13,0,0,1,79.56,695.73Z"/></g><g class="cls-15"><path class="cls-176" d="M79.46,695.73a40.87,40.87,0,1,0-40.92,41.12,41,41,0,0,0,40.92-41.12Zm.3,0A41.12,41.12,0,1,1,38.54,654.3,41.18,41.18,0,0,1,79.76,695.73Z"/></g><g class="cls-15"><path class="cls-177" d="M79.66,695.73a41,41,0,1,0-41,41.22,41.15,41.15,0,0,0,41-41.22Zm.2,0A41.32,41.32,0,1,1,38.54,654.2,41.4,41.4,0,0,1,79.86,695.73Z"/></g><g class="cls-15"><path class="cls-178" d="M79.76,695.73a41.22,41.22,0,1,0-41.22,41.42,41.3,41.3,0,0,0,41.22-41.42Zm.31,0A41.53,41.53,0,1,1,38.54,654,41.62,41.62,0,0,1,80.07,695.73Z"/></g><g class="cls-15"><path class="cls-178" d="M80,695.73a41.43,41.43,0,1,0-41.43,41.63A41.51,41.51,0,0,0,80,695.73Zm.3,0A41.73,41.73,0,1,1,38.54,653.8,41.83,41.83,0,0,1,80.27,695.73Z"/></g><g class="cls-15"><path class="cls-179" d="M80.17,695.73a41.63,41.63,0,1,0-41.63,41.83,41.73,41.73,0,0,0,41.63-41.83Zm.3,0a41.93,41.93,0,1,1-41.93-42.14A42.05,42.05,0,0,1,80.47,695.73Z"/></g><g class="cls-15"><path class="cls-180" d="M80.37,695.73a41.83,41.83,0,1,0-41.83,42,41.94,41.94,0,0,0,41.83-42Zm.31,0a42.14,42.14,0,1,1-42.14-42.44A42.28,42.28,0,0,1,80.68,695.73Z"/></g><g class="cls-15"><path class="cls-181" d="M80.57,695.73a42,42,0,1,0-42,42.24,42.1,42.1,0,0,0,42-42.24Zm.31,0a42.34,42.34,0,1,1-42.34-42.54A42.42,42.42,0,0,1,80.88,695.73Z"/></g><g class="cls-15"><path class="cls-182" d="M80.78,695.73a42.24,42.24,0,1,0-42.24,42.44,42.32,42.32,0,0,0,42.24-42.44Zm.3,0A42.54,42.54,0,1,1,38.54,653,42.63,42.63,0,0,1,81.08,695.73Z"/></g><g class="cls-15"><path class="cls-183" d="M81,695.73a42.44,42.44,0,1,0-42.44,42.64A42.53,42.53,0,0,0,81,695.73Zm.31,0a42.75,42.75,0,1,1-42.75-43A42.79,42.79,0,0,1,81.29,695.73Z"/></g><g class="cls-15"><path class="cls-184" d="M81.18,695.73a42.64,42.64,0,1,0-42.64,42.85,42.74,42.74,0,0,0,42.64-42.85Zm.31,0a43,43,0,1,1-42.95-43.15A43,43,0,0,1,81.49,695.73Z"/></g><g class="cls-15"><path class="cls-185" d="M81.39,695.73a42.85,42.85,0,1,0-42.85,43,43,43,0,0,0,42.85-43Zm.3,0a43.15,43.15,0,1,1-43.15-43.35A43.22,43.22,0,0,1,81.69,695.73Z"/></g><g class="cls-15"><path class="cls-186" d="M81.59,695.73A43.05,43.05,0,1,0,38.54,739a43.18,43.18,0,0,0,43.05-43.25Zm.3,0a43.35,43.35,0,1,1-43.35-43.56A43.44,43.44,0,0,1,81.89,695.73Z"/></g><g class="cls-15"><path class="cls-187" d="M81.79,695.73a43.25,43.25,0,1,0-43.25,43.46,43.4,43.4,0,0,0,43.25-43.46Zm.31,0A43.56,43.56,0,1,1,38.54,652,43.66,43.66,0,0,1,82.1,695.73Z"/></g><g class="cls-15"><path class="cls-188" d="M82,695.73a43.46,43.46,0,1,0-43.46,43.66A43.56,43.56,0,0,0,82,695.73Zm.3,0a43.76,43.76,0,1,1-43.76-44A43.86,43.86,0,0,1,82.3,695.73Z"/></g><g class="cls-15"><path class="cls-189" d="M82.2,695.73a43.66,43.66,0,1,0-43.66,43.86A43.69,43.69,0,0,0,82.2,695.73Zm.3,0a44,44,0,1,1-44-44.17A44.09,44.09,0,0,1,82.5,695.73Z"/></g><g class="cls-15"><path class="cls-190" d="M82.4,695.73a43.86,43.86,0,1,0-43.86,44.06A43.92,43.92,0,0,0,82.4,695.73Zm.31,0a44.17,44.17,0,1,1-44.17-44.37A44.31,44.31,0,0,1,82.71,695.73Z"/></g><g class="cls-15"><path class="cls-189" d="M82.61,695.73A44.07,44.07,0,1,0,38.54,740a44.14,44.14,0,0,0,44.07-44.27Zm.3,0a44.32,44.32,0,1,1-44.37-44.57A44.44,44.44,0,0,1,82.91,695.73Z"/></g><g class="cls-15"><path class="cls-191" d="M82.81,695.73A44.17,44.17,0,1,0,38.64,740.2a44.33,44.33,0,0,0,44.17-44.47Zm.3,0A44.47,44.47,0,1,1,38.64,651,44.66,44.66,0,0,1,83.11,695.73Z"/></g><g class="cls-15"><path class="cls-192" d="M83,695.73A44.37,44.37,0,1,0,38.64,740.4,44.54,44.54,0,0,0,83,695.73Zm.31,0a44.68,44.68,0,1,1-89.35,0,44.68,44.68,0,1,1,89.35,0Z"/></g><g class="cls-15"><path class="cls-192" d="M83.21,695.73a44.57,44.57,0,1,0-89.14,0,44.77,44.77,0,0,0,44.57,44.88,44.83,44.83,0,0,0,44.57-44.88Zm.21,0a44.88,44.88,0,1,1-44.88-45.18A45,45,0,0,1,83.42,695.73Z"/></g><g class="cls-15"><path class="cls-193" d="M83.32,695.73a44.78,44.78,0,1,0-89.56,0,45,45,0,0,0,44.78,45.08,45,45,0,0,0,44.78-45.08Zm.3,0a45.08,45.08,0,1,1-45.08-45.39A45.23,45.23,0,0,1,83.62,695.73Z"/></g><g class="cls-15"><path class="cls-193" d="M83.52,695.73a45,45,0,1,0-45,45.28,45.12,45.12,0,0,0,45-45.28Zm.3,0a45.28,45.28,0,1,1-45.28-45.59A45.45,45.45,0,0,1,83.82,695.73Z"/></g><g class="cls-15"><path class="cls-194" d="M83.72,695.73a45.18,45.18,0,1,0-45.18,45.49,45.35,45.35,0,0,0,45.18-45.49Zm.31,0A45.49,45.49,0,1,1,38.54,650,45.59,45.59,0,0,1,84,695.73Z"/></g><g class="cls-15"><path class="cls-194" d="M83.93,695.73a45.39,45.39,0,1,0-45.39,45.59,45.48,45.48,0,0,0,45.39-45.59Zm.3,0a45.69,45.69,0,1,1-45.69-45.89A45.74,45.74,0,0,1,84.23,695.73Z"/></g><g class="cls-15"><path class="cls-195" d="M84.13,695.73a45.59,45.59,0,1,0-45.59,45.79,45.7,45.7,0,0,0,45.59-45.79Zm.3,0a45.89,45.89,0,1,1-45.89-46.1A46,46,0,0,1,84.43,695.73Z"/></g><g class="cls-15"><path class="cls-196" d="M84.33,695.73a45.79,45.79,0,1,0-45.79,46,45.91,45.91,0,0,0,45.79-46Zm.31,0a46.1,46.1,0,1,1-46.1-46.3A46.17,46.17,0,0,1,84.64,695.73Z"/></g><g class="cls-15"><path class="cls-196" d="M84.53,695.73a46,46,0,1,0-46,46.2,46.12,46.12,0,0,0,46-46.2Zm.31,0a46.3,46.3,0,1,1-46.3-46.5A46.38,46.38,0,0,1,84.84,695.73Z"/></g><g class="cls-15"><path class="cls-197" d="M84.74,695.73a46.2,46.2,0,1,0-46.2,46.4,46.28,46.28,0,0,0,46.2-46.4Zm.3,0A46.5,46.5,0,1,1,38.54,649,46.6,46.6,0,0,1,85,695.73Z"/></g><g class="cls-15"><path class="cls-198" d="M84.94,695.73a46.4,46.4,0,1,0-46.4,46.6,46.49,46.49,0,0,0,46.4-46.6Zm.31,0a46.71,46.71,0,1,1-46.71-46.91A46.83,46.83,0,0,1,85.25,695.73Z"/></g><g class="cls-15"><path class="cls-199" d="M85.14,695.73a46.6,46.6,0,1,0-46.6,46.81,46.65,46.65,0,0,0,46.6-46.81Zm.31,0a46.91,46.91,0,1,1-46.91-47.11A47,47,0,0,1,85.45,695.73Z"/></g><g class="cls-15"><path class="cls-200" d="M85.35,695.73a46.81,46.81,0,1,0-46.81,47,46.87,46.87,0,0,0,46.81-47Zm.3,0a47.11,47.11,0,1,1-47.11-47.31A47.25,47.25,0,0,1,85.65,695.73Z"/></g><g class="cls-15"><path class="cls-201" d="M85.55,695.73a47,47,0,1,0-47,47.21,47.08,47.08,0,0,0,47-47.21Zm.3,0a47.31,47.31,0,1,1-47.31-47.52A47.4,47.4,0,0,1,85.85,695.73Z"/></g><g class="cls-15"><path class="cls-202" d="M85.75,695.73a47.16,47.16,0,1,0-47.11,47.42,47.3,47.3,0,0,0,47.11-47.42Zm.31,0A47.52,47.52,0,1,1,38.54,648,47.56,47.56,0,0,1,86.06,695.73Z"/></g><g class="cls-15"><path class="cls-203" d="M86,695.73a47.42,47.42,0,1,0-47.42,47.62A47.51,47.51,0,0,0,86,695.73Zm.3,0a47.62,47.62,0,1,1-47.62-47.92A47.75,47.75,0,0,1,86.26,695.73Z"/></g><g class="cls-15"><path class="cls-204" d="M86.16,695.73a47.62,47.62,0,1,0-47.62,47.82,47.73,47.73,0,0,0,47.62-47.82Zm.3,0A47.82,47.82,0,1,1,38.64,647.6,48,48,0,0,1,86.46,695.73Z"/></g><g class="cls-15"><path class="cls-204" d="M86.36,695.73a47.72,47.72,0,1,0-95.44,0,47.93,47.93,0,0,0,47.72,48,47.92,47.92,0,0,0,47.72-48Zm.31,0a48,48,0,1,1-48-48.33A48.19,48.19,0,0,1,86.67,695.73Z"/></g><g class="cls-15"><path class="cls-205" d="M86.57,695.73a47.93,47.93,0,1,0-95.85,0A48.14,48.14,0,0,0,38.64,744a48.15,48.15,0,0,0,47.93-48.23Zm.3,0A48.23,48.23,0,1,1,38.54,647.2,48.41,48.41,0,0,1,86.87,695.73Z"/></g><g class="cls-15"><path class="cls-206" d="M86.77,695.73a48.13,48.13,0,1,0-48.13,48.43,48.3,48.3,0,0,0,48.13-48.43Zm.2,0A48.43,48.43,0,1,1,38.54,647,48.62,48.62,0,0,1,87,695.73Z"/></g><g class="cls-15"><path class="cls-207" d="M86.87,695.73a48.33,48.33,0,1,0-48.33,48.63,48.51,48.51,0,0,0,48.33-48.63Zm.3,0a48.63,48.63,0,1,1-97.26,0,48.63,48.63,0,1,1,97.26,0Z"/></g><g class="cls-15"><path class="cls-208" d="M87.07,695.73a48.53,48.53,0,1,0-48.53,48.84,48.66,48.66,0,0,0,48.53-48.84Zm.31,0a48.84,48.84,0,1,1-48.84-49.14A49,49,0,0,1,87.38,695.73Z"/></g><g class="cls-15"><path class="cls-209" d="M87.28,695.73a48.74,48.74,0,1,0-48.74,49,48.88,48.88,0,0,0,48.74-49Zm.3,0a49,49,0,1,1-49-49.35A49.2,49.2,0,0,1,87.58,695.73Z"/></g><g class="cls-15"><path class="cls-210" d="M87.48,695.73A48.94,48.94,0,1,0,38.54,745a49.09,49.09,0,0,0,48.94-49.24Zm.3,0a49.24,49.24,0,1,1-49.24-49.55A49.42,49.42,0,0,1,87.78,695.73Z"/></g><g class="cls-15"><path class="cls-211" d="M87.68,695.73a49.14,49.14,0,1,0-49.14,49.45,49.31,49.31,0,0,0,49.14-49.45Zm.31,0a49.45,49.45,0,1,1-98.9,0,49.45,49.45,0,1,1,98.9,0Z"/></g><g class="cls-15"><path class="cls-212" d="M87.89,695.73a49.35,49.35,0,1,0-49.35,49.65,49.54,49.54,0,0,0,49.35-49.65Zm.3,0a49.65,49.65,0,1,1-49.65-49.85A49.86,49.86,0,0,1,88.19,695.73Z"/></g><g class="cls-15"><path class="cls-212" d="M88.09,695.73a49.55,49.55,0,1,0-49.55,49.85,49.68,49.68,0,0,0,49.55-49.85Zm.3,0a49.85,49.85,0,1,1-49.85-50.06A49.92,49.92,0,0,1,88.39,695.73Z"/></g><g class="cls-15"><path class="cls-213" d="M88.29,695.73a49.75,49.75,0,1,0-49.75,49.95,49.8,49.8,0,0,0,49.75-49.95Zm.31,0a50.06,50.06,0,1,1-50.06-50.26A50.14,50.14,0,0,1,88.6,695.73Z"/></g><g class="cls-15"><path class="cls-214" d="M88.49,695.73a50,50,0,1,0-49.95,50.16,50,50,0,0,0,49.95-50.16Zm.31,0a50.26,50.26,0,1,1-50.26-50.46A50.35,50.35,0,0,1,88.8,695.73Z"/></g><g class="cls-15"><path class="cls-16" d="M88.7,695.73a50.16,50.16,0,1,0-50.16,50.36A50.24,50.24,0,0,0,88.7,695.73Zm.3,0a50.46,50.46,0,1,1-50.46-50.67A50.5,50.5,0,0,1,89,695.73Z"/></g><g class="cls-15"><path class="cls-16" d="M88.9,695.73a50.36,50.36,0,1,0-50.36,50.56A50.46,50.46,0,0,0,88.9,695.73Zm.2,0A50.56,50.56,0,1,1,38.54,645,50.68,50.68,0,0,1,89.1,695.73Z"/></g><path class="cls-13" d="M44,649.53H58.44A10.76,10.76,0,0,1,69.2,660.29v15.23a10.77,10.77,0,0,1-10.76,10.77H44a10.77,10.77,0,0,1-10.76-10.77V660.29A10.76,10.76,0,0,1,44,649.53Zm0,3.66a6.93,6.93,0,0,0-6.8,6.8v15.53a6.94,6.94,0,0,0,6.8,6.81H58.44a6.93,6.93,0,0,0,6.8-6.81V660.29a6.93,6.93,0,0,0-6.8-6.8L44,653.19Z"/><circle class="cls-13" cx="60.98" cy="657.96" r="2.23"/><path class="cls-13" d="M51.33,662.22a5.69,5.69,0,1,1-5.68,5.69,5.81,5.81,0,0,1,5.68-5.69Zm0-4.77a10.16,10.16,0,1,0,10.16,10.16A10.25,10.25,0,0,0,51.33,657.45Z"/><path class="cls-215" d="M51.35,591.38a26.45,26.45,0,1,0-.1,0Z"/><path class="cls-13" d="M61,546v7H56.22A2,2,0,0,0,54,555.22V560h7v7H54v16.65H46.68V567H41.91v-6.9h4.77V554.2A8.3,8.3,0,0,1,55.06,546H61Z"/><path class="cls-216" d="M51.75,435.67a26,26,0,0,0-26.14,25.84,27.36,27.36,0,0,0,3.68,13.38L24.8,488.68l14.5-4.49a26.84,26.84,0,0,0,12.46,3.17A26,26,0,0,0,77.9,461.52C78.19,447.31,66.25,435.67,51.75,435.67Z"/><path class="cls-217" d="M51.75,483.05a21.75,21.75,0,0,1-12-3.68l-8.27,2.55,2.86-8a22.27,22.27,0,0,1-4.29-12.75A21.86,21.86,0,1,1,51.75,483Zm12.46-15.62c-.61-.31-4-1.94-4.49-2.25a.93.93,0,0,0-1.43.31c-.61.61-1.74,1.94-2.25,2.55-.31.61-.82.61-1.43,0a16.17,16.17,0,0,1-5.11-3.37,12.44,12.44,0,0,1-3.37-4.8,1.18,1.18,0,0,1,.31-1.43,5.94,5.94,0,0,1,1.12-1.12,1.56,1.56,0,0,0,.61-1.12c.31-.61.31-.82,0-1.12A47.05,47.05,0,0,1,46.23,450c-.61-1.43-1.12-1.12-1.43-1.12H43.68a1.76,1.76,0,0,0-1.74.82,7.11,7.11,0,0,0-2.6,5.4,13.2,13.2,0,0,0,2.55,6.84c.31.61,4.29,7.35,11,10.52,6.84,2.86,6.84,1.94,8,1.94s4-1.43,4.49-2.86a8.24,8.24,0,0,0,.61-3.17,10.75,10.75,0,0,1-1.79-.91Z"/><path class="cls-218" d="M44.73,372V353.92H38.64V372Zm21.48,0V361.62c0-5.55-2.86-8.06-6.8-8.06A6,6,0,0,0,54,356.42v-2.5H48c.18,1.79,0,18.08,0,18.08H54V362a3.48,3.48,0,0,1,.18-1.43,3.33,3.33,0,0,1,3-2.33c2.15,0,3.05,1.79,3.05,4.12V372ZM41.68,351.41a3.06,3.06,0,1,0,0-6.09c-2.15,0-3.4,1.26-3.4,3.05s1.25,3,3.4,3Z"/><path class="cls-219" d="M66.21,372V361.62c0-5.55-2.86-8.06-6.8-8.06A6,6,0,0,0,54,356.42v-2.5H48c.18,1.79,0,18.08,0,18.08H54V362a3.48,3.48,0,0,1,.18-1.43,3.33,3.33,0,0,1,3-2.33c2.15,0,3.05,1.79,3.05,4.12V372ZM41.68,351.41a3.06,3.06,0,1,0,0-6.09c-2.15,0-3.4,1.26-3.4,3.05s1.25,3,3.4,3ZM51.35,386a26.5,26.5,0,1,1,26.5-26.5A26.44,26.44,0,0,1,51.35,386Zm-6.62-14V353.92H38.64V372Z"/><path class="cls-220" d="M51.35,283.26a26.4,26.4,0,1,0-.2,0Z"/><path class="cls-13" d="M66.35,248.84V250c0,10.46-7.92,22.54-22.34,22.54a21.6,21.6,0,0,1-11.88-3.66h1.93a16.51,16.51,0,0,0,9.65-3.35,7.74,7.74,0,0,1-7.31-5.69c.61,0,.81.3,1.42.3a3.65,3.65,0,0,0,1.93-.3,7.89,7.89,0,0,1-6.19-7.92h0A12.72,12.72,0,0,0,37.22,253a8.4,8.4,0,0,1-3.35-6.5,6.68,6.68,0,0,1,1.12-4,22.24,22.24,0,0,0,16,8.22c0-.61-.3-1.12-.3-1.73a7.75,7.75,0,0,1,7.56-7.92h.36a7.16,7.16,0,0,1,5.74,2.59,20.81,20.81,0,0,0,5.07-1.9,8.16,8.16,0,0,1-3.35,4.47,23.59,23.59,0,0,0,4.47-1.12A30.28,30.28,0,0,1,66.35,248.84Z"/><path class="cls-221" d="M51.46,127.51a26.43,26.43,0,0,0-10.68,50.66,22.8,22.8,0,0,1,.58-6.16c.61-1.93,3.36-14.14,3.36-14.14a10.92,10.92,0,0,1-.81-4.27c0-4,2.24-6.82,5.09-6.82,2.54,0,3.66,1.73,3.66,4,0,2.54-1.42,5.9-2.24,9.36a4.12,4.12,0,0,0,3,5,4,4,0,0,0,1.24.11c5.09,0,8.44-6.51,8.44-14.14,0-5.9-4-10.17-11-10.17a12.54,12.54,0,0,0-13,12.07c0,.22,0,.44,0,.65a7,7,0,0,0,1.73,5.09c.61.61.61.81.31,1.42a5.47,5.47,0,0,1-.61,2.24,1.07,1.07,0,0,1-1.39.62h0c-4-1.42-5.7-5.39-5.7-9.87,0-7.63,6.21-16.68,18.92-16.68,10.17,0,16.68,7.32,16.68,15.26,0,10.48-5.7,18.11-14.45,18.11-2.85,0-5.7-1.42-6.51-3.36,0,0-1.42,6.21-1.93,7.32a46.88,46.88,0,0,1-2.54,5.7,28.56,28.56,0,0,0,7.63,1.12,26.49,26.49,0,0,0,26.55-26.45v-.1A26.11,26.11,0,0,0,52.1,127.52Z"/><path class="cls-13" d="M40.78,178.17a22.8,22.8,0,0,1,.58-6.16c.61-1.93,3.36-14.14,3.36-14.14a10.92,10.92,0,0,1-.81-4.27c0-4,2.24-6.82,5.09-6.82,2.54,0,3.66,1.73,3.66,4,0,2.54-1.42,5.9-2.24,9.36a4.12,4.12,0,0,0,3,5,4,4,0,0,0,1.24.11c5.09,0,8.44-6.51,8.44-14.14,0-5.9-4-10.17-11-10.17a12.54,12.54,0,0,0-13,12.07c0,.22,0,.44,0,.65a7,7,0,0,0,1.73,5.09c.61.61.61.81.31,1.42a5.47,5.47,0,0,1-.61,2.24,1.07,1.07,0,0,1-1.39.62h0c-4-1.42-5.7-5.39-5.7-9.87,0-7.63,6.21-16.68,18.92-16.68,10.17,0,16.68,7.32,16.68,15.26,0,10.48-5.7,18.11-14.45,18.11-2.85,0-5.7-1.42-6.51-3.36,0,0-1.42,6.21-1.93,7.32a46.88,46.88,0,0,1-2.54,5.7Z"/><path class="cls-222" d="M51.33,77.85A26.5,26.5,0,1,0,24.88,51.7,26.15,26.15,0,0,0,51,77.85Z"/><path class="cls-223" d="M68.56,61.84a2.4,2.4,0,0,1-2.23,2.23H36.43a2.39,2.39,0,0,1-2.23-2.23V41.27A2.4,2.4,0,0,1,36.43,39h29.9a2.41,2.41,0,0,1,2.23,2.23Z"/><path class="cls-224" d="M68.56,42.08V61.84a2.4,2.4,0,0,1-2.23,2.23H63.49L50.82,54.75Z"/><polygon class="cls-225" points="39.57 64.07 68.56 42.89 68.56 42.08 38.36 64.07 39.57 64.07"/><path class="cls-226" d="M68.56,41.27V62.45a2.54,2.54,0,0,1-2.23,1.72H64.61v-24h0L66,39.06h0A2.4,2.4,0,0,1,68.56,41.27Z"/><path class="cls-227" d="M66.33,38.94h0l-1.72,1.22h0L51.33,49.78,37.85,40.15,36.74,39h-.3a2.4,2.4,0,0,0-2.23,2.23V62.15a2.54,2.54,0,0,0,2.23,1.72h1.72V45.42l9.83,7,3.14,2.23.61.61,3.65-2.84,9.32-6.79h0l4-2.84V41.07A2.72,2.72,0,0,0,66.33,38.94Z"/><polygon class="cls-228" points="91.41 1503.89 101.35 1508.03 101.35 1509.7 91.41 1513.73 91.41 1511.87 98.99 1508.81 91.41 1505.76 91.41 1503.89"/><polygon class="cls-228" points="85.01 1515.61 83.73 1515.61 87.97 1502.02 89.34 1502.02 85.01 1515.61"/><polygon class="cls-228" points="78.91 1513.93 76.84 1505.96 79.21 1505.96 80.19 1510.29 82.36 1505.96 84.92 1505.96 80.58 1513.93 78.91 1513.93"/><path class="cls-228" d="M75.37,1513.54c-.4.2-.89.29-1.38.49a7.78,7.78,0,0,1-1.57.1,3.58,3.58,0,0,1-3.94-3.84,4.08,4.08,0,0,1,1.28-3.25,4.3,4.3,0,0,1,3.15-1.18,3.53,3.53,0,0,1,2.56.89,3.59,3.59,0,0,1,.88,2.65.6.6,0,0,1-.1.4v.49H70.94v.2a2.18,2.18,0,0,0,.49,1.38,2.41,2.41,0,0,0,1.48.39,6.7,6.7,0,0,0,1.28-.2,9.94,9.94,0,0,0,1.67-.69Zm-4.14-4.63H74v-.19a1.72,1.72,0,0,0-.29-1,1.21,1.21,0,0,0-.89-.29,1.06,1.06,0,0,0-.89.39,2.37,2.37,0,0,0-.69,1.08Z"/><path class="cls-228" d="M55.88,1513.93l1.77-11.71c.2,0,.4-.1.69-.1H59a28.93,28.93,0,0,1,3.44.2,9.47,9.47,0,0,1,2.07.69,5.18,5.18,0,0,1,2.27,2.06,5.87,5.87,0,0,1,.88,3.15,8,8,0,0,1-.39,2.17,5.28,5.28,0,0,1-1.09,1.77,4.56,4.56,0,0,1-2.16,1.38,9.88,9.88,0,0,1-3.25.39Zm2.85-2H60.9a4,4,0,0,0,3-1,3.57,3.57,0,0,0,1.09-2.86,3.63,3.63,0,0,0-1.19-2.85,4.31,4.31,0,0,0-3.24-1.08h-.59Z"/><rect class="cls-228" x="46.23" y="1514.33" width="8.56" height="1.67"/><path class="cls-228" d="M37.77,1513.83l1.77-11.61h2.27l-.6,4.43a2.33,2.33,0,0,1,1.09-.59,1.74,1.74,0,0,1,1-.2,2.66,2.66,0,0,1,2.17,1,4,4,0,0,1,.78,2.55,4.56,4.56,0,0,1-1.47,3.55,6.46,6.46,0,0,1-4.14,1.18,5.88,5.88,0,0,1-1.37-.1,7.42,7.42,0,0,1-1.48-.2Zm2.56-1.57h.29a3.27,3.27,0,0,0,2.37-.69,2.47,2.47,0,0,0,.88-2,2.84,2.84,0,0,0-.39-1.38,1.05,1.05,0,0,0-1-.39,1.15,1.15,0,0,0-.78.2,2.56,2.56,0,0,0-.89.69Z"/><path class="cls-228" d="M36.1,1513.54c-.5.2-.89.29-1.48.49a7.78,7.78,0,0,1-1.57.1,4,4,0,0,1-2.86-1,3.85,3.85,0,0,1-1-2.85,4.08,4.08,0,0,1,4.43-4.43,3.28,3.28,0,0,1,2.46.89,3.59,3.59,0,0,1,.88,2.65v.4a.87.87,0,0,1-.1.49H31.57v.2a1.81,1.81,0,0,0,.59,1.38,2.07,2.07,0,0,0,1.48.39,5.93,5.93,0,0,0,1.18-.2,7.41,7.41,0,0,0,1.67-.69ZM32,1508.91h2.66v-.19a1.66,1.66,0,0,0-.3-1,.94.94,0,0,0-.78-.29,1.25,1.25,0,0,0-1,.39,1.69,1.69,0,0,0-.59,1.08Z"/><polygon class="cls-228" points="16.61 1514.13 14.35 1502.22 16.71 1502.22 17.89 1509.31 21.63 1502.22 22.91 1502.22 24.68 1509.21 27.93 1502.22 30.49 1502.22 24.68 1514.13 23.5 1514.13 21.73 1506.75 17.79 1514.13 16.61 1514.13"/><polygon class="cls-228" points="11.29 1503.89 11.29 1505.76 3.81 1508.81 11.29 1511.87 11.29 1513.73 1.35 1509.7 1.35 1508.03 11.29 1503.89"/><path class="cls-229" d="M48.7,1462.85c17.42-4.53,33.36-1.77,35.72,6.1s-9.84,18-27.26,22.54-33.37,1.87-35.63-6.1,9.84-17.91,27.17-22.54Zm.49,1c15.35-4.23,29.52-1.67,31.59,5.71s-8.76,16.73-24.11,21-29.53,1.77-31.6-5.61,8.76-16.83,24.12-21.07Z"/><path class="cls-228" d="M60,1480.07c-.09.4-.29.89-.39,1.38a5.24,5.24,0,0,1-.49,1.28,4.47,4.47,0,0,1-1.48,1.77,2.9,2.9,0,0,1-2.07.4,3.39,3.39,0,0,1-1.47-.69c-.4-.3-.79-.69-1.18-1a4.33,4.33,0,0,1-.1.5.59.59,0,0,1-.1.39c0,.39-.1.69-.1,1s-.1.69-.19,1c-.1.49-.2,1.18-.4,1.87a1.05,1.05,0,0,1-.1.49c-.1.2-.1.39-.19.49-.1.3-.5.4-.89.4a2.18,2.18,0,0,1-1.08,0,1.42,1.42,0,0,1-1.18-.89,2.43,2.43,0,0,1-.1-.89,3.28,3.28,0,0,0,.1-.88c.1-.49.1-.89.19-1.38a5.73,5.73,0,0,0,.2-1.38c.1-.39.2-.88.3-1.38a6.2,6.2,0,0,0,.19-1.37c.1-.3.1-.59.2-.89a2.74,2.74,0,0,1,.1-.89,13.27,13.27,0,0,0-.2-3.44,2.32,2.32,0,0,1,.3-1.38,1.94,1.94,0,0,1,1.28-.79,1,1,0,0,1,.88.1.65.65,0,0,1,.49.69,4.55,4.55,0,0,1,.1.49c.1.2.2.4.3.4a.35.35,0,0,0,.29.1.39.39,0,0,1,.3.09,1.08,1.08,0,0,1,.39.5.46.46,0,0,1-.1.59.3.3,0,0,0-.1.19c-.09.1-.09.2-.19.3a6.89,6.89,0,0,0,.29,2.66,3.15,3.15,0,0,0,1.68,2,1.68,1.68,0,0,0,1.18-.6,3.33,3.33,0,0,0,.49-1.18,22.94,22.94,0,0,0,.59-3.54c.1-1.28.1-2.46.1-3.64a2.54,2.54,0,0,1,.1-1.18,1.65,1.65,0,0,1,.69-1,2,2,0,0,1,1.08-.1,1.39,1.39,0,0,1,1,.6,3.29,3.29,0,0,1,.89,2.06,4.67,4.67,0,0,0,.1,1.18,5.28,5.28,0,0,0,.19,1.18l.3,1.19c.1.39.2.88.29,1.28s.2.68.4,1.18a5.67,5.67,0,0,1,.49,1.18c.49,1,.89,2.06,1.28,3A7.19,7.19,0,0,1,65,1485a7.27,7.27,0,0,1,.1,1.47,1,1,0,0,1-.49.89,2.7,2.7,0,0,1-1.18.29,1.66,1.66,0,0,1-1.58-1,6.91,6.91,0,0,1-.68-2.17c-.1-.39-.2-.78-.3-1.28a4.78,4.78,0,0,1-.2-1.18c-.1-.39-.19-.69-.29-1.08a1.77,1.77,0,0,0-.4-.89Z"/><path class="cls-228" d="M69.56,1478.4a11.57,11.57,0,0,0,2-.79,7.65,7.65,0,0,0,1.67-1.37,2.39,2.39,0,0,1,2.46-1.09h0a3.06,3.06,0,0,1,.89,1.09,1.09,1.09,0,0,1-.39,1.08c-.3.29-.59.49-.89.79s-.69.49-1,.68c-.5.3-.89.5-1.38.79a8.88,8.88,0,0,1-1.38.69c-.2.1-.49.2-.69.3a4.22,4.22,0,0,0-.69.29c-.1.1-.1.2,0,.2s.3.1.4.19a3.43,3.43,0,0,0,.88.4c.3.1.59.29.89.39.78.49,1.57.89,2.26,1.28.49.4,1.18.79,1.87,1.38a6.46,6.46,0,0,1,1.58,1.77,1.52,1.52,0,0,1,.19.89.65.65,0,0,1-.59.69,2.46,2.46,0,0,1-.79-.1,5.84,5.84,0,0,0-.78-.4c-.3-.19-.69-.39-1.09-.68a7.78,7.78,0,0,1-1.08-.69c-.69-.5-1.47-1-2.26-1.58a3.4,3.4,0,0,1-.79-.49c-.29-.2-.59-.3-.89-.49,0,.29-.09.78-.09,1.28a1.5,1.5,0,0,1-.5,1,1.14,1.14,0,0,1-.78.3c-.4,0-.69,0-.79-.2a1.42,1.42,0,0,1-.59-1.18,4.37,4.37,0,0,1-.1-1.08v-1a2.68,2.68,0,0,1-.69-.39c-.2-.1-.39-.3-.59-.4l-.49-.49a.59.59,0,0,1-.3-.59,1.25,1.25,0,0,1,.69-.88,6.75,6.75,0,0,1,.59-.4c.2-.1.4-.29.59-.29-.09-.4-.09-.69-.19-1.09v-1c-.1-.3-.1-.69-.2-1.08s-.1-.69-.1-1a7,7,0,0,1,.1-2.46,2.53,2.53,0,0,1,.39-.88,1,1,0,0,1,.89-.2,1.67,1.67,0,0,1,.89.29c.29.3.49.5.49.79s.1.59.1,1v.88a18.32,18.32,0,0,1,.09,2.27,6.68,6.68,0,0,0,.2,1.57Z"/><path class="cls-228" d="M39.34,1473.38a3.35,3.35,0,0,1-1.47-.39.93.93,0,0,1-.69-1.18,1,1,0,0,1,.69-.89,10.2,10.2,0,0,1,1.28-.49,4.85,4.85,0,0,1,.19-1,1,1,0,0,1,.5-.78,1.19,1.19,0,0,1,.78-.4.92.92,0,0,1,.89.1,1.29,1.29,0,0,1,.69.89,4.26,4.26,0,0,1,.2,1,5.16,5.16,0,0,0,1.28-.1H45a7.42,7.42,0,0,1,1.48-.1,7.64,7.64,0,0,0,1.38-.09H49c.39-.1.89-.1,1.28-.2a3.38,3.38,0,0,0,.89-.1,2.8,2.8,0,0,0,.88-.2c.2-.09.3-.19.4-.19s0-.2-.3-.3a22.22,22.22,0,0,0-3.15-.79c-1.08-.19-2.17-.39-3.15-.59a74.25,74.25,0,0,0-8.27-1c-2.75-.2-5.51-.3-8.26-.39-1.19,0-2.27,0-3.45.09s-2.26.1-3.35.2a3.14,3.14,0,0,1-2,.79,2.9,2.9,0,0,1-1.68-.2,1.22,1.22,0,0,1-.49-.49,1.57,1.57,0,0,1-.3-.79,1,1,0,0,1,.1-.88c.1-.3.2-.59.5-.69a2.09,2.09,0,0,1,1.08-.49c.49-.1.88-.1,1.18-.2a15,15,0,0,1,2.16-.1h7.78c2.07.1,4.23.2,6.3.39s4.13.3,6.2.59c.89.1,1.87.3,2.85.5l2.76.59a28,28,0,0,1,3.64,1.18c1.58.59,2.56,1.28,2.95,2.26a1.55,1.55,0,0,1-.29,1.58,5,5,0,0,1-1.58,1.08,12.2,12.2,0,0,1-2,.69c-.69.1-1.18.2-1.58.29-1.47.2-3.05.3-4.53.4H44.07a9.37,9.37,0,0,1-1.67.1v1.08c0,.29.09.69.09,1.08.1.79.2,1.48.3,2.26s.2,1.48.29,2.27.3,1.87.4,2.75.29,1.87.39,2.86a5.55,5.55,0,0,1,.1,1.38,1.85,1.85,0,0,1-.39,1.28,1.36,1.36,0,0,1-1,.39c-.49,0-.88,0-1.08-.2a1.83,1.83,0,0,1-1-1.47c-.1-.3-.1-.59-.2-.89a3,3,0,0,0-.1-1,6.37,6.37,0,0,0-.1-1.38c0-.49-.1-1-.1-1.48l-.29-2.36a20.64,20.64,0,0,1-.3-2.46v-1.08a3.68,3.68,0,0,1-.1-1.09v-1.67Z"/></svg>
